<?xml version="1.0" encoding="utf-8" standalone="no"?>
<!DOCTYPE svg PUBLIC "-//W3C//DTD SVG 1.1//EN"
  "http://www.w3.org/Graphics/SVG/1.1/DTD/svg11.dtd">
<svg xmlns:xlink="http://www.w3.org/1999/xlink" width="856.419688pt" height="388.506406pt" viewBox="0 0 856.419688 388.506406" xmlns="http://www.w3.org/2000/svg" version="1.1">
 <metadata>
  <rdf:RDF xmlns:dc="http://purl.org/dc/elements/1.1/" xmlns:cc="http://creativecommons.org/ns#" xmlns:rdf="http://www.w3.org/1999/02/22-rdf-syntax-ns#">
   <cc:Work>
    <dc:type rdf:resource="http://purl.org/dc/dcmitype/StillImage"/>
    <dc:date>2026-05-12T15:00:27.957461</dc:date>
    <dc:format>image/svg+xml</dc:format>
    <dc:creator>
     <cc:Agent>
      <dc:title>Matplotlib v3.10.9, https://matplotlib.org/</dc:title>
     </cc:Agent>
    </dc:creator>
   </cc:Work>
  </rdf:RDF>
 </metadata>
 <defs>
  <style type="text/css">*{stroke-linejoin: round; stroke-linecap: butt}</style>
 </defs>
 <g id="figure_1">
  <g id="patch_1">
   <path d="M 0 388.506406 
L 856.419688 388.506406 
L 856.419688 0 
L 0 0 
z
" style="fill: #ffffff"/>
  </g>
  <g id="axes_1">
   <g id="patch_2">
    <path d="M 49.732656 351.917969 
L 840.887656 351.917969 
L 840.887656 35.077969 
L 49.732656 35.077969 
z
" style="fill: #ffffff"/>
   </g>
   <g id="line2d_1">
    <path d="M 121.880255 351.917969 
L 121.880255 35.077969 
" clip-path="url(#pb8d4e07d3d)" style="fill: none; stroke: #cccccc; stroke-opacity: 0.6; stroke-width: 0.5; stroke-linecap: square"/>
   </g>
   <g id="line2d_2">
    <path d="M 289.40179 351.917969 
L 289.40179 35.077969 
" clip-path="url(#pb8d4e07d3d)" style="fill: none; stroke: #cccccc; stroke-opacity: 0.6; stroke-width: 0.5; stroke-linecap: square"/>
   </g>
   <g id="line2d_3">
    <path d="M 529.070924 351.917969 
L 529.070924 35.077969 
" clip-path="url(#pb8d4e07d3d)" style="fill: none; stroke: #cccccc; stroke-opacity: 0.6; stroke-width: 0.5; stroke-linecap: square"/>
   </g>
   <g id="line2d_4">
    <path d="M 768.740058 351.917969 
L 768.740058 35.077969 
" clip-path="url(#pb8d4e07d3d)" style="fill: none; stroke: #cccccc; stroke-opacity: 0.6; stroke-width: 0.5; stroke-linecap: square"/>
   </g>
   <g id="line2d_5">
    <path d="M 49.732656 236.703423 
L 840.887656 236.703423 
" clip-path="url(#pb8d4e07d3d)" style="fill: none; stroke: #888888; stroke-opacity: 0.5; stroke-width: 0.7; stroke-linecap: square"/>
   </g>
   <g id="matplotlib.axis_1">
    <g id="xtick_1">
     <g id="line2d_6">
      <path d="M 121.880255 351.917969 
L 121.880255 35.077969 
" clip-path="url(#pb8d4e07d3d)" style="fill: none; stroke: #b0b0b0; stroke-opacity: 0.35; stroke-width: 0.5; stroke-linecap: square"/>
     </g>
     <g id="line2d_7">
      <defs>
       <path id="m958b5c6d61" d="M 0 0 
L 0 3.5 
" style="stroke: #444444; stroke-width: 0.8"/>
      </defs>
      <g>
       <use xlink:href="#m958b5c6d61" x="121.880255" y="351.917969" style="fill: #444444; stroke: #444444; stroke-width: 0.8"/>
      </g>
     </g>
     <g id="text_1">
      <!-- 20 -->
      <g style="fill: #444444" transform="translate(116.154005 365.756562) scale(0.09 -0.09)">
       <defs>
        <path id="DejaVuSans-32" d="M 1228 531 
L 3431 531 
L 3431 0 
L 469 0 
L 469 531 
Q 828 903 1448 1529 
Q 2069 2156 2228 2338 
Q 2531 2678 2651 2914 
Q 2772 3150 2772 3378 
Q 2772 3750 2511 3984 
Q 2250 4219 1831 4219 
Q 1534 4219 1204 4116 
Q 875 4013 500 3803 
L 500 4441 
Q 881 4594 1212 4672 
Q 1544 4750 1819 4750 
Q 2544 4750 2975 4387 
Q 3406 4025 3406 3419 
Q 3406 3131 3298 2873 
Q 3191 2616 2906 2266 
Q 2828 2175 2409 1742 
Q 1991 1309 1228 531 
z
" transform="scale(0.015625)"/>
        <path id="DejaVuSans-30" d="M 2034 4250 
Q 1547 4250 1301 3770 
Q 1056 3291 1056 2328 
Q 1056 1369 1301 889 
Q 1547 409 2034 409 
Q 2525 409 2770 889 
Q 3016 1369 3016 2328 
Q 3016 3291 2770 3770 
Q 2525 4250 2034 4250 
z
M 2034 4750 
Q 2819 4750 3233 4129 
Q 3647 3509 3647 2328 
Q 3647 1150 3233 529 
Q 2819 -91 2034 -91 
Q 1250 -91 836 529 
Q 422 1150 422 2328 
Q 422 3509 836 4129 
Q 1250 4750 2034 4750 
z
" transform="scale(0.015625)"/>
       </defs>
       <use xlink:href="#DejaVuSans-32"/>
       <use xlink:href="#DejaVuSans-30" transform="translate(63.623047 0)"/>
      </g>
     </g>
    </g>
    <g id="xtick_2">
     <g id="line2d_8">
      <path d="M 217.254192 351.917969 
L 217.254192 35.077969 
" clip-path="url(#pb8d4e07d3d)" style="fill: none; stroke: #b0b0b0; stroke-opacity: 0.35; stroke-width: 0.5; stroke-linecap: square"/>
     </g>
     <g id="line2d_9">
      <g>
       <use xlink:href="#m958b5c6d61" x="217.254192" y="351.917969" style="fill: #444444; stroke: #444444; stroke-width: 0.8"/>
      </g>
     </g>
     <g id="text_2">
      <!-- 50 -->
      <g style="fill: #444444" transform="translate(211.527942 365.756562) scale(0.09 -0.09)">
       <defs>
        <path id="DejaVuSans-35" d="M 691 4666 
L 3169 4666 
L 3169 4134 
L 1269 4134 
L 1269 2991 
Q 1406 3038 1543 3061 
Q 1681 3084 1819 3084 
Q 2600 3084 3056 2656 
Q 3513 2228 3513 1497 
Q 3513 744 3044 326 
Q 2575 -91 1722 -91 
Q 1428 -91 1123 -41 
Q 819 9 494 109 
L 494 744 
Q 775 591 1075 516 
Q 1375 441 1709 441 
Q 2250 441 2565 725 
Q 2881 1009 2881 1497 
Q 2881 1984 2565 2268 
Q 2250 2553 1709 2553 
Q 1456 2553 1204 2497 
Q 953 2441 691 2322 
L 691 4666 
z
" transform="scale(0.015625)"/>
       </defs>
       <use xlink:href="#DejaVuSans-35"/>
       <use xlink:href="#DejaVuSans-30" transform="translate(63.623047 0)"/>
      </g>
     </g>
    </g>
    <g id="xtick_3">
     <g id="line2d_10">
      <path d="M 289.40179 351.917969 
L 289.40179 35.077969 
" clip-path="url(#pb8d4e07d3d)" style="fill: none; stroke: #b0b0b0; stroke-opacity: 0.35; stroke-width: 0.5; stroke-linecap: square"/>
     </g>
     <g id="line2d_11">
      <g>
       <use xlink:href="#m958b5c6d61" x="289.40179" y="351.917969" style="fill: #444444; stroke: #444444; stroke-width: 0.8"/>
      </g>
     </g>
     <g id="text_3">
      <!-- 100 -->
      <g style="fill: #444444" transform="translate(280.812415 365.756562) scale(0.09 -0.09)">
       <defs>
        <path id="DejaVuSans-31" d="M 794 531 
L 1825 531 
L 1825 4091 
L 703 3866 
L 703 4441 
L 1819 4666 
L 2450 4666 
L 2450 531 
L 3481 531 
L 3481 0 
L 794 0 
L 794 531 
z
" transform="scale(0.015625)"/>
       </defs>
       <use xlink:href="#DejaVuSans-31"/>
       <use xlink:href="#DejaVuSans-30" transform="translate(63.623047 0)"/>
       <use xlink:href="#DejaVuSans-30" transform="translate(127.246094 0)"/>
      </g>
     </g>
    </g>
    <g id="xtick_4">
     <g id="line2d_12">
      <path d="M 361.549388 351.917969 
L 361.549388 35.077969 
" clip-path="url(#pb8d4e07d3d)" style="fill: none; stroke: #b0b0b0; stroke-opacity: 0.35; stroke-width: 0.5; stroke-linecap: square"/>
     </g>
     <g id="line2d_13">
      <g>
       <use xlink:href="#m958b5c6d61" x="361.549388" y="351.917969" style="fill: #444444; stroke: #444444; stroke-width: 0.8"/>
      </g>
     </g>
     <g id="text_4">
      <!-- 200 -->
      <g style="fill: #444444" transform="translate(352.960013 365.756562) scale(0.09 -0.09)">
       <use xlink:href="#DejaVuSans-32"/>
       <use xlink:href="#DejaVuSans-30" transform="translate(63.623047 0)"/>
       <use xlink:href="#DejaVuSans-30" transform="translate(127.246094 0)"/>
      </g>
     </g>
    </g>
    <g id="xtick_5">
     <g id="line2d_14">
      <path d="M 456.923326 351.917969 
L 456.923326 35.077969 
" clip-path="url(#pb8d4e07d3d)" style="fill: none; stroke: #b0b0b0; stroke-opacity: 0.35; stroke-width: 0.5; stroke-linecap: square"/>
     </g>
     <g id="line2d_15">
      <g>
       <use xlink:href="#m958b5c6d61" x="456.923326" y="351.917969" style="fill: #444444; stroke: #444444; stroke-width: 0.8"/>
      </g>
     </g>
     <g id="text_5">
      <!-- 500 -->
      <g style="fill: #444444" transform="translate(448.333951 365.756562) scale(0.09 -0.09)">
       <use xlink:href="#DejaVuSans-35"/>
       <use xlink:href="#DejaVuSans-30" transform="translate(63.623047 0)"/>
       <use xlink:href="#DejaVuSans-30" transform="translate(127.246094 0)"/>
      </g>
     </g>
    </g>
    <g id="xtick_6">
     <g id="line2d_16">
      <path d="M 529.070924 351.917969 
L 529.070924 35.077969 
" clip-path="url(#pb8d4e07d3d)" style="fill: none; stroke: #b0b0b0; stroke-opacity: 0.35; stroke-width: 0.5; stroke-linecap: square"/>
     </g>
     <g id="line2d_17">
      <g>
       <use xlink:href="#m958b5c6d61" x="529.070924" y="351.917969" style="fill: #444444; stroke: #444444; stroke-width: 0.8"/>
      </g>
     </g>
     <g id="text_6">
      <!-- 1k -->
      <g style="fill: #444444" transform="translate(523.602018 365.756562) scale(0.09 -0.09)">
       <defs>
        <path id="DejaVuSans-6b" d="M 581 4863 
L 1159 4863 
L 1159 1991 
L 2875 3500 
L 3609 3500 
L 1753 1863 
L 3688 0 
L 2938 0 
L 1159 1709 
L 1159 0 
L 581 0 
L 581 4863 
z
" transform="scale(0.015625)"/>
       </defs>
       <use xlink:href="#DejaVuSans-31"/>
       <use xlink:href="#DejaVuSans-6b" transform="translate(63.623047 0)"/>
      </g>
     </g>
    </g>
    <g id="xtick_7">
     <g id="line2d_18">
      <path d="M 601.218522 351.917969 
L 601.218522 35.077969 
" clip-path="url(#pb8d4e07d3d)" style="fill: none; stroke: #b0b0b0; stroke-opacity: 0.35; stroke-width: 0.5; stroke-linecap: square"/>
     </g>
     <g id="line2d_19">
      <g>
       <use xlink:href="#m958b5c6d61" x="601.218522" y="351.917969" style="fill: #444444; stroke: #444444; stroke-width: 0.8"/>
      </g>
     </g>
     <g id="text_7">
      <!-- 2k -->
      <g style="fill: #444444" transform="translate(595.749616 365.756562) scale(0.09 -0.09)">
       <use xlink:href="#DejaVuSans-32"/>
       <use xlink:href="#DejaVuSans-6b" transform="translate(63.623047 0)"/>
      </g>
     </g>
    </g>
    <g id="xtick_8">
     <g id="line2d_20">
      <path d="M 696.59246 351.917969 
L 696.59246 35.077969 
" clip-path="url(#pb8d4e07d3d)" style="fill: none; stroke: #b0b0b0; stroke-opacity: 0.35; stroke-width: 0.5; stroke-linecap: square"/>
     </g>
     <g id="line2d_21">
      <g>
       <use xlink:href="#m958b5c6d61" x="696.59246" y="351.917969" style="fill: #444444; stroke: #444444; stroke-width: 0.8"/>
      </g>
     </g>
     <g id="text_8">
      <!-- 5k -->
      <g style="fill: #444444" transform="translate(691.123553 365.756562) scale(0.09 -0.09)">
       <use xlink:href="#DejaVuSans-35"/>
       <use xlink:href="#DejaVuSans-6b" transform="translate(63.623047 0)"/>
      </g>
     </g>
    </g>
    <g id="xtick_9">
     <g id="line2d_22">
      <path d="M 768.740058 351.917969 
L 768.740058 35.077969 
" clip-path="url(#pb8d4e07d3d)" style="fill: none; stroke: #b0b0b0; stroke-opacity: 0.35; stroke-width: 0.5; stroke-linecap: square"/>
     </g>
     <g id="line2d_23">
      <g>
       <use xlink:href="#m958b5c6d61" x="768.740058" y="351.917969" style="fill: #444444; stroke: #444444; stroke-width: 0.8"/>
      </g>
     </g>
     <g id="text_9">
      <!-- 10k -->
      <g style="fill: #444444" transform="translate(760.408027 365.756562) scale(0.09 -0.09)">
       <use xlink:href="#DejaVuSans-31"/>
       <use xlink:href="#DejaVuSans-30" transform="translate(63.623047 0)"/>
       <use xlink:href="#DejaVuSans-6b" transform="translate(127.246094 0)"/>
      </g>
     </g>
    </g>
    <g id="xtick_10">
     <g id="line2d_24">
      <path d="M 840.887656 351.917969 
L 840.887656 35.077969 
" clip-path="url(#pb8d4e07d3d)" style="fill: none; stroke: #b0b0b0; stroke-opacity: 0.35; stroke-width: 0.5; stroke-linecap: square"/>
     </g>
     <g id="line2d_25">
      <g>
       <use xlink:href="#m958b5c6d61" x="840.887656" y="351.917969" style="fill: #444444; stroke: #444444; stroke-width: 0.8"/>
      </g>
     </g>
     <g id="text_10">
      <!-- 20k -->
      <g style="fill: #444444" transform="translate(832.555625 365.756562) scale(0.09 -0.09)">
       <use xlink:href="#DejaVuSans-32"/>
       <use xlink:href="#DejaVuSans-30" transform="translate(63.623047 0)"/>
       <use xlink:href="#DejaVuSans-6b" transform="translate(127.246094 0)"/>
      </g>
     </g>
    </g>
    <g id="xtick_11">
     <g id="line2d_26">
      <path d="M 164.083894 351.917969 
L 164.083894 35.077969 
" clip-path="url(#pb8d4e07d3d)" style="fill: none; stroke-dasharray: 0.4,0.66; stroke-dashoffset: 0; stroke: #b0b0b0; stroke-opacity: 0.2; stroke-width: 0.4"/>
     </g>
     <g id="line2d_27">
      <defs>
       <path id="mda0bc94061" d="M 0 0 
L 0 2 
" style="stroke: #000000; stroke-width: 0.6"/>
      </defs>
      <g>
       <use xlink:href="#mda0bc94061" x="164.083894" y="351.917969" style="stroke: #000000; stroke-width: 0.6"/>
      </g>
     </g>
    </g>
    <g id="xtick_12">
     <g id="line2d_28">
      <path d="M 194.027853 351.917969 
L 194.027853 35.077969 
" clip-path="url(#pb8d4e07d3d)" style="fill: none; stroke-dasharray: 0.4,0.66; stroke-dashoffset: 0; stroke: #b0b0b0; stroke-opacity: 0.2; stroke-width: 0.4"/>
     </g>
     <g id="line2d_29">
      <g>
       <use xlink:href="#mda0bc94061" x="194.027853" y="351.917969" style="stroke: #000000; stroke-width: 0.6"/>
      </g>
     </g>
    </g>
    <g id="xtick_13">
     <g id="line2d_30">
      <path d="M 236.231492 351.917969 
L 236.231492 35.077969 
" clip-path="url(#pb8d4e07d3d)" style="fill: none; stroke-dasharray: 0.4,0.66; stroke-dashoffset: 0; stroke: #b0b0b0; stroke-opacity: 0.2; stroke-width: 0.4"/>
     </g>
     <g id="line2d_31">
      <g>
       <use xlink:href="#mda0bc94061" x="236.231492" y="351.917969" style="stroke: #000000; stroke-width: 0.6"/>
      </g>
     </g>
    </g>
    <g id="xtick_14">
     <g id="line2d_32">
      <path d="M 252.276572 351.917969 
L 252.276572 35.077969 
" clip-path="url(#pb8d4e07d3d)" style="fill: none; stroke-dasharray: 0.4,0.66; stroke-dashoffset: 0; stroke: #b0b0b0; stroke-opacity: 0.2; stroke-width: 0.4"/>
     </g>
     <g id="line2d_33">
      <g>
       <use xlink:href="#mda0bc94061" x="252.276572" y="351.917969" style="stroke: #000000; stroke-width: 0.6"/>
      </g>
     </g>
    </g>
    <g id="xtick_15">
     <g id="line2d_34">
      <path d="M 266.175451 351.917969 
L 266.175451 35.077969 
" clip-path="url(#pb8d4e07d3d)" style="fill: none; stroke-dasharray: 0.4,0.66; stroke-dashoffset: 0; stroke: #b0b0b0; stroke-opacity: 0.2; stroke-width: 0.4"/>
     </g>
     <g id="line2d_35">
      <g>
       <use xlink:href="#mda0bc94061" x="266.175451" y="351.917969" style="stroke: #000000; stroke-width: 0.6"/>
      </g>
     </g>
    </g>
    <g id="xtick_16">
     <g id="line2d_36">
      <path d="M 278.435132 351.917969 
L 278.435132 35.077969 
" clip-path="url(#pb8d4e07d3d)" style="fill: none; stroke-dasharray: 0.4,0.66; stroke-dashoffset: 0; stroke: #b0b0b0; stroke-opacity: 0.2; stroke-width: 0.4"/>
     </g>
     <g id="line2d_37">
      <g>
       <use xlink:href="#mda0bc94061" x="278.435132" y="351.917969" style="stroke: #000000; stroke-width: 0.6"/>
      </g>
     </g>
    </g>
    <g id="xtick_17">
     <g id="line2d_38">
      <path d="M 403.753028 351.917969 
L 403.753028 35.077969 
" clip-path="url(#pb8d4e07d3d)" style="fill: none; stroke-dasharray: 0.4,0.66; stroke-dashoffset: 0; stroke: #b0b0b0; stroke-opacity: 0.2; stroke-width: 0.4"/>
     </g>
     <g id="line2d_39">
      <g>
       <use xlink:href="#mda0bc94061" x="403.753028" y="351.917969" style="stroke: #000000; stroke-width: 0.6"/>
      </g>
     </g>
    </g>
    <g id="xtick_18">
     <g id="line2d_40">
      <path d="M 433.696987 351.917969 
L 433.696987 35.077969 
" clip-path="url(#pb8d4e07d3d)" style="fill: none; stroke-dasharray: 0.4,0.66; stroke-dashoffset: 0; stroke: #b0b0b0; stroke-opacity: 0.2; stroke-width: 0.4"/>
     </g>
     <g id="line2d_41">
      <g>
       <use xlink:href="#mda0bc94061" x="433.696987" y="351.917969" style="stroke: #000000; stroke-width: 0.6"/>
      </g>
     </g>
    </g>
    <g id="xtick_19">
     <g id="line2d_42">
      <path d="M 475.900626 351.917969 
L 475.900626 35.077969 
" clip-path="url(#pb8d4e07d3d)" style="fill: none; stroke-dasharray: 0.4,0.66; stroke-dashoffset: 0; stroke: #b0b0b0; stroke-opacity: 0.2; stroke-width: 0.4"/>
     </g>
     <g id="line2d_43">
      <g>
       <use xlink:href="#mda0bc94061" x="475.900626" y="351.917969" style="stroke: #000000; stroke-width: 0.6"/>
      </g>
     </g>
    </g>
    <g id="xtick_20">
     <g id="line2d_44">
      <path d="M 491.945705 351.917969 
L 491.945705 35.077969 
" clip-path="url(#pb8d4e07d3d)" style="fill: none; stroke-dasharray: 0.4,0.66; stroke-dashoffset: 0; stroke: #b0b0b0; stroke-opacity: 0.2; stroke-width: 0.4"/>
     </g>
     <g id="line2d_45">
      <g>
       <use xlink:href="#mda0bc94061" x="491.945705" y="351.917969" style="stroke: #000000; stroke-width: 0.6"/>
      </g>
     </g>
    </g>
    <g id="xtick_21">
     <g id="line2d_46">
      <path d="M 505.844585 351.917969 
L 505.844585 35.077969 
" clip-path="url(#pb8d4e07d3d)" style="fill: none; stroke-dasharray: 0.4,0.66; stroke-dashoffset: 0; stroke: #b0b0b0; stroke-opacity: 0.2; stroke-width: 0.4"/>
     </g>
     <g id="line2d_47">
      <g>
       <use xlink:href="#mda0bc94061" x="505.844585" y="351.917969" style="stroke: #000000; stroke-width: 0.6"/>
      </g>
     </g>
    </g>
    <g id="xtick_22">
     <g id="line2d_48">
      <path d="M 518.104266 351.917969 
L 518.104266 35.077969 
" clip-path="url(#pb8d4e07d3d)" style="fill: none; stroke-dasharray: 0.4,0.66; stroke-dashoffset: 0; stroke: #b0b0b0; stroke-opacity: 0.2; stroke-width: 0.4"/>
     </g>
     <g id="line2d_49">
      <g>
       <use xlink:href="#mda0bc94061" x="518.104266" y="351.917969" style="stroke: #000000; stroke-width: 0.6"/>
      </g>
     </g>
    </g>
    <g id="xtick_23">
     <g id="line2d_50">
      <path d="M 643.422162 351.917969 
L 643.422162 35.077969 
" clip-path="url(#pb8d4e07d3d)" style="fill: none; stroke-dasharray: 0.4,0.66; stroke-dashoffset: 0; stroke: #b0b0b0; stroke-opacity: 0.2; stroke-width: 0.4"/>
     </g>
     <g id="line2d_51">
      <g>
       <use xlink:href="#mda0bc94061" x="643.422162" y="351.917969" style="stroke: #000000; stroke-width: 0.6"/>
      </g>
     </g>
    </g>
    <g id="xtick_24">
     <g id="line2d_52">
      <path d="M 673.366121 351.917969 
L 673.366121 35.077969 
" clip-path="url(#pb8d4e07d3d)" style="fill: none; stroke-dasharray: 0.4,0.66; stroke-dashoffset: 0; stroke: #b0b0b0; stroke-opacity: 0.2; stroke-width: 0.4"/>
     </g>
     <g id="line2d_53">
      <g>
       <use xlink:href="#mda0bc94061" x="673.366121" y="351.917969" style="stroke: #000000; stroke-width: 0.6"/>
      </g>
     </g>
    </g>
    <g id="xtick_25">
     <g id="line2d_54">
      <path d="M 715.56976 351.917969 
L 715.56976 35.077969 
" clip-path="url(#pb8d4e07d3d)" style="fill: none; stroke-dasharray: 0.4,0.66; stroke-dashoffset: 0; stroke: #b0b0b0; stroke-opacity: 0.2; stroke-width: 0.4"/>
     </g>
     <g id="line2d_55">
      <g>
       <use xlink:href="#mda0bc94061" x="715.56976" y="351.917969" style="stroke: #000000; stroke-width: 0.6"/>
      </g>
     </g>
    </g>
    <g id="xtick_26">
     <g id="line2d_56">
      <path d="M 731.614839 351.917969 
L 731.614839 35.077969 
" clip-path="url(#pb8d4e07d3d)" style="fill: none; stroke-dasharray: 0.4,0.66; stroke-dashoffset: 0; stroke: #b0b0b0; stroke-opacity: 0.2; stroke-width: 0.4"/>
     </g>
     <g id="line2d_57">
      <g>
       <use xlink:href="#mda0bc94061" x="731.614839" y="351.917969" style="stroke: #000000; stroke-width: 0.6"/>
      </g>
     </g>
    </g>
    <g id="xtick_27">
     <g id="line2d_58">
      <path d="M 745.513719 351.917969 
L 745.513719 35.077969 
" clip-path="url(#pb8d4e07d3d)" style="fill: none; stroke-dasharray: 0.4,0.66; stroke-dashoffset: 0; stroke: #b0b0b0; stroke-opacity: 0.2; stroke-width: 0.4"/>
     </g>
     <g id="line2d_59">
      <g>
       <use xlink:href="#mda0bc94061" x="745.513719" y="351.917969" style="stroke: #000000; stroke-width: 0.6"/>
      </g>
     </g>
    </g>
    <g id="xtick_28">
     <g id="line2d_60">
      <path d="M 757.7734 351.917969 
L 757.7734 35.077969 
" clip-path="url(#pb8d4e07d3d)" style="fill: none; stroke-dasharray: 0.4,0.66; stroke-dashoffset: 0; stroke: #b0b0b0; stroke-opacity: 0.2; stroke-width: 0.4"/>
     </g>
     <g id="line2d_61">
      <g>
       <use xlink:href="#mda0bc94061" x="757.7734" y="351.917969" style="stroke: #000000; stroke-width: 0.6"/>
      </g>
     </g>
    </g>
    <g id="text_11">
     <!-- Frequency (Hz) -->
     <g style="fill: #444444" transform="translate(407.605469 379.226719) scale(0.1 -0.1)">
      <defs>
       <path id="DejaVuSans-46" d="M 628 4666 
L 3309 4666 
L 3309 4134 
L 1259 4134 
L 1259 2759 
L 3109 2759 
L 3109 2228 
L 1259 2228 
L 1259 0 
L 628 0 
L 628 4666 
z
" transform="scale(0.015625)"/>
       <path id="DejaVuSans-72" d="M 2631 2963 
Q 2534 3019 2420 3045 
Q 2306 3072 2169 3072 
Q 1681 3072 1420 2755 
Q 1159 2438 1159 1844 
L 1159 0 
L 581 0 
L 581 3500 
L 1159 3500 
L 1159 2956 
Q 1341 3275 1631 3429 
Q 1922 3584 2338 3584 
Q 2397 3584 2469 3576 
Q 2541 3569 2628 3553 
L 2631 2963 
z
" transform="scale(0.015625)"/>
       <path id="DejaVuSans-65" d="M 3597 1894 
L 3597 1613 
L 953 1613 
Q 991 1019 1311 708 
Q 1631 397 2203 397 
Q 2534 397 2845 478 
Q 3156 559 3463 722 
L 3463 178 
Q 3153 47 2828 -22 
Q 2503 -91 2169 -91 
Q 1331 -91 842 396 
Q 353 884 353 1716 
Q 353 2575 817 3079 
Q 1281 3584 2069 3584 
Q 2775 3584 3186 3129 
Q 3597 2675 3597 1894 
z
M 3022 2063 
Q 3016 2534 2758 2815 
Q 2500 3097 2075 3097 
Q 1594 3097 1305 2825 
Q 1016 2553 972 2059 
L 3022 2063 
z
" transform="scale(0.015625)"/>
       <path id="DejaVuSans-71" d="M 947 1747 
Q 947 1113 1208 752 
Q 1469 391 1925 391 
Q 2381 391 2643 752 
Q 2906 1113 2906 1747 
Q 2906 2381 2643 2742 
Q 2381 3103 1925 3103 
Q 1469 3103 1208 2742 
Q 947 2381 947 1747 
z
M 2906 525 
Q 2725 213 2448 61 
Q 2172 -91 1784 -91 
Q 1150 -91 751 415 
Q 353 922 353 1747 
Q 353 2572 751 3078 
Q 1150 3584 1784 3584 
Q 2172 3584 2448 3432 
Q 2725 3281 2906 2969 
L 2906 3500 
L 3481 3500 
L 3481 -1331 
L 2906 -1331 
L 2906 525 
z
" transform="scale(0.015625)"/>
       <path id="DejaVuSans-75" d="M 544 1381 
L 544 3500 
L 1119 3500 
L 1119 1403 
Q 1119 906 1312 657 
Q 1506 409 1894 409 
Q 2359 409 2629 706 
Q 2900 1003 2900 1516 
L 2900 3500 
L 3475 3500 
L 3475 0 
L 2900 0 
L 2900 538 
Q 2691 219 2414 64 
Q 2138 -91 1772 -91 
Q 1169 -91 856 284 
Q 544 659 544 1381 
z
M 1991 3584 
L 1991 3584 
z
" transform="scale(0.015625)"/>
       <path id="DejaVuSans-6e" d="M 3513 2113 
L 3513 0 
L 2938 0 
L 2938 2094 
Q 2938 2591 2744 2837 
Q 2550 3084 2163 3084 
Q 1697 3084 1428 2787 
Q 1159 2491 1159 1978 
L 1159 0 
L 581 0 
L 581 3500 
L 1159 3500 
L 1159 2956 
Q 1366 3272 1645 3428 
Q 1925 3584 2291 3584 
Q 2894 3584 3203 3211 
Q 3513 2838 3513 2113 
z
" transform="scale(0.015625)"/>
       <path id="DejaVuSans-63" d="M 3122 3366 
L 3122 2828 
Q 2878 2963 2633 3030 
Q 2388 3097 2138 3097 
Q 1578 3097 1268 2742 
Q 959 2388 959 1747 
Q 959 1106 1268 751 
Q 1578 397 2138 397 
Q 2388 397 2633 464 
Q 2878 531 3122 666 
L 3122 134 
Q 2881 22 2623 -34 
Q 2366 -91 2075 -91 
Q 1284 -91 818 406 
Q 353 903 353 1747 
Q 353 2603 823 3093 
Q 1294 3584 2113 3584 
Q 2378 3584 2631 3529 
Q 2884 3475 3122 3366 
z
" transform="scale(0.015625)"/>
       <path id="DejaVuSans-79" d="M 2059 -325 
Q 1816 -950 1584 -1140 
Q 1353 -1331 966 -1331 
L 506 -1331 
L 506 -850 
L 844 -850 
Q 1081 -850 1212 -737 
Q 1344 -625 1503 -206 
L 1606 56 
L 191 3500 
L 800 3500 
L 1894 763 
L 2988 3500 
L 3597 3500 
L 2059 -325 
z
" transform="scale(0.015625)"/>
       <path id="DejaVuSans-20" transform="scale(0.015625)"/>
       <path id="DejaVuSans-28" d="M 1984 4856 
Q 1566 4138 1362 3434 
Q 1159 2731 1159 2009 
Q 1159 1288 1364 580 
Q 1569 -128 1984 -844 
L 1484 -844 
Q 1016 -109 783 600 
Q 550 1309 550 2009 
Q 550 2706 781 3412 
Q 1013 4119 1484 4856 
L 1984 4856 
z
" transform="scale(0.015625)"/>
       <path id="DejaVuSans-48" d="M 628 4666 
L 1259 4666 
L 1259 2753 
L 3553 2753 
L 3553 4666 
L 4184 4666 
L 4184 0 
L 3553 0 
L 3553 2222 
L 1259 2222 
L 1259 0 
L 628 0 
L 628 4666 
z
" transform="scale(0.015625)"/>
       <path id="DejaVuSans-7a" d="M 353 3500 
L 3084 3500 
L 3084 2975 
L 922 459 
L 3084 459 
L 3084 0 
L 275 0 
L 275 525 
L 2438 3041 
L 353 3041 
L 353 3500 
z
" transform="scale(0.015625)"/>
       <path id="DejaVuSans-29" d="M 513 4856 
L 1013 4856 
Q 1481 4119 1714 3412 
Q 1947 2706 1947 2009 
Q 1947 1309 1714 600 
Q 1481 -109 1013 -844 
L 513 -844 
Q 928 -128 1133 580 
Q 1338 1288 1338 2009 
Q 1338 2731 1133 3434 
Q 928 4138 513 4856 
z
" transform="scale(0.015625)"/>
      </defs>
      <use xlink:href="#DejaVuSans-46"/>
      <use xlink:href="#DejaVuSans-72" transform="translate(50.269531 0)"/>
      <use xlink:href="#DejaVuSans-65" transform="translate(89.132812 0)"/>
      <use xlink:href="#DejaVuSans-71" transform="translate(150.65625 0)"/>
      <use xlink:href="#DejaVuSans-75" transform="translate(214.132812 0)"/>
      <use xlink:href="#DejaVuSans-65" transform="translate(277.511719 0)"/>
      <use xlink:href="#DejaVuSans-6e" transform="translate(339.035156 0)"/>
      <use xlink:href="#DejaVuSans-63" transform="translate(402.414062 0)"/>
      <use xlink:href="#DejaVuSans-79" transform="translate(457.394531 0)"/>
      <use xlink:href="#DejaVuSans-20" transform="translate(516.574219 0)"/>
      <use xlink:href="#DejaVuSans-28" transform="translate(548.361328 0)"/>
      <use xlink:href="#DejaVuSans-48" transform="translate(587.375 0)"/>
      <use xlink:href="#DejaVuSans-7a" transform="translate(662.570312 0)"/>
      <use xlink:href="#DejaVuSans-29" transform="translate(715.060547 0)"/>
     </g>
    </g>
   </g>
   <g id="matplotlib.axis_2">
    <g id="ytick_1">
     <g id="line2d_62">
      <path d="M 49.732656 344.71706 
L 840.887656 344.71706 
" clip-path="url(#pb8d4e07d3d)" style="fill: none; stroke: #b0b0b0; stroke-opacity: 0.35; stroke-width: 0.5; stroke-linecap: square"/>
     </g>
     <g id="line2d_63">
      <defs>
       <path id="m810dfa9a7f" d="M 0 0 
L -3.5 0 
" style="stroke: #444444; stroke-width: 0.8"/>
      </defs>
      <g>
       <use xlink:href="#m810dfa9a7f" x="49.732656" y="344.71706" style="fill: #444444; stroke: #444444; stroke-width: 0.8"/>
      </g>
     </g>
     <g id="text_12">
      <!-- −7.5 -->
      <g style="fill: #444444" transform="translate(20.878125 348.136357) scale(0.09 -0.09)">
       <defs>
        <path id="DejaVuSans-2212" d="M 678 2272 
L 4684 2272 
L 4684 1741 
L 678 1741 
L 678 2272 
z
" transform="scale(0.015625)"/>
        <path id="DejaVuSans-37" d="M 525 4666 
L 3525 4666 
L 3525 4397 
L 1831 0 
L 1172 0 
L 2766 4134 
L 525 4134 
L 525 4666 
z
" transform="scale(0.015625)"/>
        <path id="DejaVuSans-2e" d="M 684 794 
L 1344 794 
L 1344 0 
L 684 0 
L 684 794 
z
" transform="scale(0.015625)"/>
       </defs>
       <use xlink:href="#DejaVuSans-2212"/>
       <use xlink:href="#DejaVuSans-37" transform="translate(83.789062 0)"/>
       <use xlink:href="#DejaVuSans-2e" transform="translate(147.412109 0)"/>
       <use xlink:href="#DejaVuSans-35" transform="translate(179.199219 0)"/>
      </g>
     </g>
    </g>
    <g id="ytick_2">
     <g id="line2d_64">
      <path d="M 49.732656 308.712514 
L 840.887656 308.712514 
" clip-path="url(#pb8d4e07d3d)" style="fill: none; stroke: #b0b0b0; stroke-opacity: 0.35; stroke-width: 0.5; stroke-linecap: square"/>
     </g>
     <g id="line2d_65">
      <g>
       <use xlink:href="#m810dfa9a7f" x="49.732656" y="308.712514" style="fill: #444444; stroke: #444444; stroke-width: 0.8"/>
      </g>
     </g>
     <g id="text_13">
      <!-- −5.0 -->
      <g style="fill: #444444" transform="translate(20.878125 312.131811) scale(0.09 -0.09)">
       <use xlink:href="#DejaVuSans-2212"/>
       <use xlink:href="#DejaVuSans-35" transform="translate(83.789062 0)"/>
       <use xlink:href="#DejaVuSans-2e" transform="translate(147.412109 0)"/>
       <use xlink:href="#DejaVuSans-30" transform="translate(179.199219 0)"/>
      </g>
     </g>
    </g>
    <g id="ytick_3">
     <g id="line2d_66">
      <path d="M 49.732656 272.707969 
L 840.887656 272.707969 
" clip-path="url(#pb8d4e07d3d)" style="fill: none; stroke: #b0b0b0; stroke-opacity: 0.35; stroke-width: 0.5; stroke-linecap: square"/>
     </g>
     <g id="line2d_67">
      <g>
       <use xlink:href="#m810dfa9a7f" x="49.732656" y="272.707969" style="fill: #444444; stroke: #444444; stroke-width: 0.8"/>
      </g>
     </g>
     <g id="text_14">
      <!-- −2.5 -->
      <g style="fill: #444444" transform="translate(20.878125 276.127266) scale(0.09 -0.09)">
       <use xlink:href="#DejaVuSans-2212"/>
       <use xlink:href="#DejaVuSans-32" transform="translate(83.789062 0)"/>
       <use xlink:href="#DejaVuSans-2e" transform="translate(147.412109 0)"/>
       <use xlink:href="#DejaVuSans-35" transform="translate(179.199219 0)"/>
      </g>
     </g>
    </g>
    <g id="ytick_4">
     <g id="line2d_68">
      <path d="M 49.732656 236.703423 
L 840.887656 236.703423 
" clip-path="url(#pb8d4e07d3d)" style="fill: none; stroke: #b0b0b0; stroke-opacity: 0.35; stroke-width: 0.5; stroke-linecap: square"/>
     </g>
     <g id="line2d_69">
      <g>
       <use xlink:href="#m810dfa9a7f" x="49.732656" y="236.703423" style="fill: #444444; stroke: #444444; stroke-width: 0.8"/>
      </g>
     </g>
     <g id="text_15">
      <!-- 0.0 -->
      <g style="fill: #444444" transform="translate(28.419844 240.12272) scale(0.09 -0.09)">
       <use xlink:href="#DejaVuSans-30"/>
       <use xlink:href="#DejaVuSans-2e" transform="translate(63.623047 0)"/>
       <use xlink:href="#DejaVuSans-30" transform="translate(95.410156 0)"/>
      </g>
     </g>
    </g>
    <g id="ytick_5">
     <g id="line2d_70">
      <path d="M 49.732656 200.698878 
L 840.887656 200.698878 
" clip-path="url(#pb8d4e07d3d)" style="fill: none; stroke: #b0b0b0; stroke-opacity: 0.35; stroke-width: 0.5; stroke-linecap: square"/>
     </g>
     <g id="line2d_71">
      <g>
       <use xlink:href="#m810dfa9a7f" x="49.732656" y="200.698878" style="fill: #444444; stroke: #444444; stroke-width: 0.8"/>
      </g>
     </g>
     <g id="text_16">
      <!-- 2.5 -->
      <g style="fill: #444444" transform="translate(28.419844 204.118175) scale(0.09 -0.09)">
       <use xlink:href="#DejaVuSans-32"/>
       <use xlink:href="#DejaVuSans-2e" transform="translate(63.623047 0)"/>
       <use xlink:href="#DejaVuSans-35" transform="translate(95.410156 0)"/>
      </g>
     </g>
    </g>
    <g id="ytick_6">
     <g id="line2d_72">
      <path d="M 49.732656 164.694332 
L 840.887656 164.694332 
" clip-path="url(#pb8d4e07d3d)" style="fill: none; stroke: #b0b0b0; stroke-opacity: 0.35; stroke-width: 0.5; stroke-linecap: square"/>
     </g>
     <g id="line2d_73">
      <g>
       <use xlink:href="#m810dfa9a7f" x="49.732656" y="164.694332" style="fill: #444444; stroke: #444444; stroke-width: 0.8"/>
      </g>
     </g>
     <g id="text_17">
      <!-- 5.0 -->
      <g style="fill: #444444" transform="translate(28.419844 168.113629) scale(0.09 -0.09)">
       <use xlink:href="#DejaVuSans-35"/>
       <use xlink:href="#DejaVuSans-2e" transform="translate(63.623047 0)"/>
       <use xlink:href="#DejaVuSans-30" transform="translate(95.410156 0)"/>
      </g>
     </g>
    </g>
    <g id="ytick_7">
     <g id="line2d_74">
      <path d="M 49.732656 128.689787 
L 840.887656 128.689787 
" clip-path="url(#pb8d4e07d3d)" style="fill: none; stroke: #b0b0b0; stroke-opacity: 0.35; stroke-width: 0.5; stroke-linecap: square"/>
     </g>
     <g id="line2d_75">
      <g>
       <use xlink:href="#m810dfa9a7f" x="49.732656" y="128.689787" style="fill: #444444; stroke: #444444; stroke-width: 0.8"/>
      </g>
     </g>
     <g id="text_18">
      <!-- 7.5 -->
      <g style="fill: #444444" transform="translate(28.419844 132.109084) scale(0.09 -0.09)">
       <use xlink:href="#DejaVuSans-37"/>
       <use xlink:href="#DejaVuSans-2e" transform="translate(63.623047 0)"/>
       <use xlink:href="#DejaVuSans-35" transform="translate(95.410156 0)"/>
      </g>
     </g>
    </g>
    <g id="ytick_8">
     <g id="line2d_76">
      <path d="M 49.732656 92.685241 
L 840.887656 92.685241 
" clip-path="url(#pb8d4e07d3d)" style="fill: none; stroke: #b0b0b0; stroke-opacity: 0.35; stroke-width: 0.5; stroke-linecap: square"/>
     </g>
     <g id="line2d_77">
      <g>
       <use xlink:href="#m810dfa9a7f" x="49.732656" y="92.685241" style="fill: #444444; stroke: #444444; stroke-width: 0.8"/>
      </g>
     </g>
     <g id="text_19">
      <!-- 10.0 -->
      <g style="fill: #444444" transform="translate(22.693594 96.104538) scale(0.09 -0.09)">
       <use xlink:href="#DejaVuSans-31"/>
       <use xlink:href="#DejaVuSans-30" transform="translate(63.623047 0)"/>
       <use xlink:href="#DejaVuSans-2e" transform="translate(127.246094 0)"/>
       <use xlink:href="#DejaVuSans-30" transform="translate(159.033203 0)"/>
      </g>
     </g>
    </g>
    <g id="ytick_9">
     <g id="line2d_78">
      <path d="M 49.732656 56.680696 
L 840.887656 56.680696 
" clip-path="url(#pb8d4e07d3d)" style="fill: none; stroke: #b0b0b0; stroke-opacity: 0.35; stroke-width: 0.5; stroke-linecap: square"/>
     </g>
     <g id="line2d_79">
      <g>
       <use xlink:href="#m810dfa9a7f" x="49.732656" y="56.680696" style="fill: #444444; stroke: #444444; stroke-width: 0.8"/>
      </g>
     </g>
     <g id="text_20">
      <!-- 12.5 -->
      <g style="fill: #444444" transform="translate(22.693594 60.099993) scale(0.09 -0.09)">
       <use xlink:href="#DejaVuSans-31"/>
       <use xlink:href="#DejaVuSans-32" transform="translate(63.623047 0)"/>
       <use xlink:href="#DejaVuSans-2e" transform="translate(127.246094 0)"/>
       <use xlink:href="#DejaVuSans-35" transform="translate(159.033203 0)"/>
      </g>
     </g>
    </g>
    <g id="text_21">
     <!-- Gain (dB) -->
     <g style="fill: #444444" transform="translate(14.798438 217.089375) rotate(-90) scale(0.1 -0.1)">
      <defs>
       <path id="DejaVuSans-47" d="M 3809 666 
L 3809 1919 
L 2778 1919 
L 2778 2438 
L 4434 2438 
L 4434 434 
Q 4069 175 3628 42 
Q 3188 -91 2688 -91 
Q 1594 -91 976 548 
Q 359 1188 359 2328 
Q 359 3472 976 4111 
Q 1594 4750 2688 4750 
Q 3144 4750 3555 4637 
Q 3966 4525 4313 4306 
L 4313 3634 
Q 3963 3931 3569 4081 
Q 3175 4231 2741 4231 
Q 1884 4231 1454 3753 
Q 1025 3275 1025 2328 
Q 1025 1384 1454 906 
Q 1884 428 2741 428 
Q 3075 428 3337 486 
Q 3600 544 3809 666 
z
" transform="scale(0.015625)"/>
       <path id="DejaVuSans-61" d="M 2194 1759 
Q 1497 1759 1228 1600 
Q 959 1441 959 1056 
Q 959 750 1161 570 
Q 1363 391 1709 391 
Q 2188 391 2477 730 
Q 2766 1069 2766 1631 
L 2766 1759 
L 2194 1759 
z
M 3341 1997 
L 3341 0 
L 2766 0 
L 2766 531 
Q 2569 213 2275 61 
Q 1981 -91 1556 -91 
Q 1019 -91 701 211 
Q 384 513 384 1019 
Q 384 1609 779 1909 
Q 1175 2209 1959 2209 
L 2766 2209 
L 2766 2266 
Q 2766 2663 2505 2880 
Q 2244 3097 1772 3097 
Q 1472 3097 1187 3025 
Q 903 2953 641 2809 
L 641 3341 
Q 956 3463 1253 3523 
Q 1550 3584 1831 3584 
Q 2591 3584 2966 3190 
Q 3341 2797 3341 1997 
z
" transform="scale(0.015625)"/>
       <path id="DejaVuSans-69" d="M 603 3500 
L 1178 3500 
L 1178 0 
L 603 0 
L 603 3500 
z
M 603 4863 
L 1178 4863 
L 1178 4134 
L 603 4134 
L 603 4863 
z
" transform="scale(0.015625)"/>
       <path id="DejaVuSans-64" d="M 2906 2969 
L 2906 4863 
L 3481 4863 
L 3481 0 
L 2906 0 
L 2906 525 
Q 2725 213 2448 61 
Q 2172 -91 1784 -91 
Q 1150 -91 751 415 
Q 353 922 353 1747 
Q 353 2572 751 3078 
Q 1150 3584 1784 3584 
Q 2172 3584 2448 3432 
Q 2725 3281 2906 2969 
z
M 947 1747 
Q 947 1113 1208 752 
Q 1469 391 1925 391 
Q 2381 391 2643 752 
Q 2906 1113 2906 1747 
Q 2906 2381 2643 2742 
Q 2381 3103 1925 3103 
Q 1469 3103 1208 2742 
Q 947 2381 947 1747 
z
" transform="scale(0.015625)"/>
       <path id="DejaVuSans-42" d="M 1259 2228 
L 1259 519 
L 2272 519 
Q 2781 519 3026 730 
Q 3272 941 3272 1375 
Q 3272 1813 3026 2020 
Q 2781 2228 2272 2228 
L 1259 2228 
z
M 1259 4147 
L 1259 2741 
L 2194 2741 
Q 2656 2741 2882 2914 
Q 3109 3088 3109 3444 
Q 3109 3797 2882 3972 
Q 2656 4147 2194 4147 
L 1259 4147 
z
M 628 4666 
L 2241 4666 
Q 2963 4666 3353 4366 
Q 3744 4066 3744 3513 
Q 3744 3084 3544 2831 
Q 3344 2578 2956 2516 
Q 3422 2416 3680 2098 
Q 3938 1781 3938 1306 
Q 3938 681 3513 340 
Q 3088 0 2303 0 
L 628 0 
L 628 4666 
z
" transform="scale(0.015625)"/>
      </defs>
      <use xlink:href="#DejaVuSans-47"/>
      <use xlink:href="#DejaVuSans-61" transform="translate(77.490234 0)"/>
      <use xlink:href="#DejaVuSans-69" transform="translate(138.769531 0)"/>
      <use xlink:href="#DejaVuSans-6e" transform="translate(166.552734 0)"/>
      <use xlink:href="#DejaVuSans-20" transform="translate(229.931641 0)"/>
      <use xlink:href="#DejaVuSans-28" transform="translate(261.71875 0)"/>
      <use xlink:href="#DejaVuSans-64" transform="translate(300.732422 0)"/>
      <use xlink:href="#DejaVuSans-42" transform="translate(364.208984 0)"/>
      <use xlink:href="#DejaVuSans-29" transform="translate(432.8125 0)"/>
     </g>
    </g>
   </g>
   <g id="line2d_80">
    <path d="M 49.732656 121.963786 
L 72.958995 122.228825 
L 98.653916 122.69496 
L 121.880255 123.359315 
L 145.106593 124.378552 
L 169.162315 125.993516 
L 194.027853 128.542444 
L 217.254192 132.064122 
L 241.309913 137.251281 
L 266.175451 144.613958 
L 289.40179 153.46536 
L 312.628129 164.020316 
L 338.32305 176.980424 
L 361.549388 188.906107 
L 384.775727 200.072683 
L 408.831449 210.065075 
L 433.696987 218.290818 
L 456.923326 224.047638 
L 480.979047 228.316051 
L 505.844585 231.31764 
L 529.070924 233.18287 
L 552.297263 234.418617 
L 577.992183 235.295177 
L 601.218522 235.797173 
L 624.444861 236.121302 
L 648.500583 236.335886 
L 673.366121 236.475157 
L 696.59246 236.557191 
L 720.648181 236.611259 
L 745.513719 236.646249 
L 768.740058 236.666821 
L 791.966397 236.679995 
L 817.661317 236.689123 
L 840.887656 236.69427 
" clip-path="url(#pb8d4e07d3d)" style="fill: none; stroke: #2e5eaa; stroke-width: 2.2; stroke-linecap: square"/>
   </g>
   <g id="line2d_81">
    <path d="M 49.732656 150.71493 
L 72.958995 150.95052 
L 98.653916 151.36459 
L 121.880255 151.954144 
L 145.106593 152.857244 
L 169.162315 154.284725 
L 194.027853 156.528926 
L 217.254192 159.61122 
L 241.309913 164.110668 
L 266.175451 170.408961 
L 289.40179 177.831906 
L 312.628129 186.449994 
L 338.32305 196.644344 
L 361.549388 205.604483 
L 384.775727 213.592423 
L 408.831449 220.384402 
L 433.696987 225.708497 
L 456.923326 229.285639 
L 480.979047 231.856698 
L 505.844585 233.622676 
L 529.070924 234.725663 
L 552.297263 240.046702 
L 577.992183 245.674328 
L 601.218522 250.59481 
L 624.444861 255.414091 
L 648.500583 260.336879 
L 673.366121 265.378797 
L 696.59246 270.061265 
L 720.648181 274.893555 
L 745.513719 279.876771 
L 768.740058 284.524675 
L 791.966397 289.168423 
L 817.661317 294.302667 
L 840.887656 298.941907 
" clip-path="url(#pb8d4e07d3d)" style="fill: none; stroke: #d17a22; stroke-width: 2.2; stroke-linecap: square"/>
   </g>
   <g id="line2d_82">
    <path d="M 49.732656 193.497969 
L 72.958995 193.497969 
L 98.653916 193.497969 
L 121.880255 193.497969 
L 145.106593 193.497969 
L 169.162315 193.497969 
L 194.027853 193.497969 
L 217.254192 193.497969 
L 241.309913 193.497969 
L 266.175451 193.497969 
L 289.40179 193.497969 
L 312.628129 193.497969 
L 338.32305 193.497969 
L 361.549388 193.559823 
L 384.775727 197.346139 
L 408.831449 201.331723 
L 433.696987 205.451478 
L 456.923326 209.299648 
L 480.979047 213.285232 
L 505.844585 217.404987 
L 529.070924 221.253157 
L 552.297263 225.101328 
L 577.992183 229.358496 
L 601.218522 233.206666 
L 624.444861 237.054837 
L 648.500583 241.04042 
L 673.366121 245.160176 
L 696.59246 249.008346 
L 720.648181 252.99393 
L 745.513719 257.113685 
L 768.740058 260.961855 
L 791.966397 264.810025 
L 817.661317 269.067194 
L 840.887656 272.915364 
" clip-path="url(#pb8d4e07d3d)" style="fill: none; stroke: #3e8e5a; stroke-width: 2.2; stroke-linecap: square"/>
   </g>
   <g id="line2d_83">
    <path d="M 49.732656 179.35632 
L 72.958995 179.501605 
L 98.653916 179.757272 
L 121.880255 180.121982 
L 145.106593 180.682218 
L 169.162315 181.571541 
L 194.027853 182.978829 
L 217.254192 184.929233 
L 241.309913 187.810688 
L 266.175451 191.906264 
L 289.40179 196.81359 
L 312.628129 202.597901 
L 338.32305 209.523475 
L 361.549388 215.648806 
L 384.775727 221.111286 
L 408.831449 225.738796 
L 433.696987 229.345239 
L 456.923326 231.770679 
L 480.979047 236.838588 
L 505.844585 241.492081 
L 529.070924 245.456483 
L 552.297263 249.172435 
L 577.992183 253.093754 
L 601.218522 256.527669 
L 624.444861 259.894398 
L 648.500583 263.335851 
L 673.366121 266.862266 
L 696.59246 270.138268 
L 720.648181 273.519732 
L 745.513719 277.007245 
L 768.740058 280.260344 
L 791.966397 283.51069 
L 817.661317 287.104468 
L 840.887656 290.351827 
" clip-path="url(#pb8d4e07d3d)" style="fill: none; stroke: #c0394c; stroke-width: 2.2; stroke-linecap: square"/>
   </g>
   <g id="line2d_84">
    <path d="M 49.732656 151.017241 
L 72.958995 151.418897 
L 98.653916 152.120499 
L 121.880255 153.110059 
L 145.106593 154.605025 
L 169.162315 156.91852 
L 194.027853 160.439993 
L 217.254192 165.063801 
L 241.309913 171.41833 
L 266.175451 179.630068 
L 289.40179 188.439445 
L 312.628129 197.679235 
L 338.32305 207.454581 
L 361.549388 215.159964 
L 384.775727 221.41433 
L 408.831449 226.317606 
L 433.696987 229.913721 
L 456.923326 232.214217 
L 480.979047 233.812329 
L 505.844585 234.883879 
L 529.070924 235.528763 
L 552.297263 235.947336 
L 577.992183 236.240121 
L 601.218522 236.406269 
L 624.444861 236.512961 
L 648.500583 236.583341 
L 673.366121 236.628913 
L 696.59246 236.655717 
L 720.648181 236.673367 
L 745.513719 236.684782 
L 768.740058 236.691491 
L 791.966397 236.695786 
L 817.661317 236.698762 
L 840.887656 236.70044 
" clip-path="url(#pb8d4e07d3d)" style="fill: none; stroke: #7a52a6; stroke-width: 2.2; stroke-linecap: square"/>
   </g>
   <g id="line2d_85">
    <path d="M 49.732656 236.703423 
L 72.958995 236.703423 
L 98.653916 236.703423 
L 121.880255 236.703423 
L 145.106593 236.703423 
L 169.162315 236.703423 
L 194.027853 236.703423 
L 217.254192 236.703423 
L 241.309913 236.703423 
L 266.175451 236.703423 
L 289.40179 236.703423 
L 312.628129 236.703423 
L 338.32305 236.703423 
L 361.549388 236.703423 
L 384.775727 236.703423 
L 408.831449 236.703423 
L 433.696987 236.703423 
L 456.923326 236.703423 
L 480.979047 236.703423 
L 505.844585 236.703423 
L 529.070924 236.703423 
L 552.297263 236.703423 
L 577.992183 236.703423 
L 601.218522 236.703423 
L 624.444861 236.703423 
L 648.500583 236.703423 
L 673.366121 236.703423 
L 696.59246 236.703423 
L 720.648181 236.703423 
L 745.513719 236.703423 
L 768.740058 236.703423 
L 791.966397 236.703423 
L 817.661317 236.703423 
L 840.887656 236.703423 
" clip-path="url(#pb8d4e07d3d)" style="fill: none; stroke: #b8860b; stroke-width: 2.2; stroke-linecap: square"/>
   </g>
   <g id="patch_3">
    <path d="M 49.732656 351.917969 
L 49.732656 35.077969 
" style="fill: none; stroke: #888888; stroke-width: 0.8; stroke-linejoin: miter; stroke-linecap: square"/>
   </g>
   <g id="patch_4">
    <path d="M 49.732656 351.917969 
L 840.887656 351.917969 
" style="fill: none; stroke: #888888; stroke-width: 0.8; stroke-linejoin: miter; stroke-linecap: square"/>
   </g>
   <g id="text_22">
    <!-- Each curve is parametric — every shape shown here can be tuned via YAML or Python. -->
    <g style="fill: #666666" transform="translate(49.732656 29.933866) scale(0.095 -0.095)">
     <defs>
      <path id="DejaVuSans-45" d="M 628 4666 
L 3578 4666 
L 3578 4134 
L 1259 4134 
L 1259 2753 
L 3481 2753 
L 3481 2222 
L 1259 2222 
L 1259 531 
L 3634 531 
L 3634 0 
L 628 0 
L 628 4666 
z
" transform="scale(0.015625)"/>
      <path id="DejaVuSans-68" d="M 3513 2113 
L 3513 0 
L 2938 0 
L 2938 2094 
Q 2938 2591 2744 2837 
Q 2550 3084 2163 3084 
Q 1697 3084 1428 2787 
Q 1159 2491 1159 1978 
L 1159 0 
L 581 0 
L 581 4863 
L 1159 4863 
L 1159 2956 
Q 1366 3272 1645 3428 
Q 1925 3584 2291 3584 
Q 2894 3584 3203 3211 
Q 3513 2838 3513 2113 
z
" transform="scale(0.015625)"/>
      <path id="DejaVuSans-76" d="M 191 3500 
L 800 3500 
L 1894 563 
L 2988 3500 
L 3597 3500 
L 2284 0 
L 1503 0 
L 191 3500 
z
" transform="scale(0.015625)"/>
      <path id="DejaVuSans-73" d="M 2834 3397 
L 2834 2853 
Q 2591 2978 2328 3040 
Q 2066 3103 1784 3103 
Q 1356 3103 1142 2972 
Q 928 2841 928 2578 
Q 928 2378 1081 2264 
Q 1234 2150 1697 2047 
L 1894 2003 
Q 2506 1872 2764 1633 
Q 3022 1394 3022 966 
Q 3022 478 2636 193 
Q 2250 -91 1575 -91 
Q 1294 -91 989 -36 
Q 684 19 347 128 
L 347 722 
Q 666 556 975 473 
Q 1284 391 1588 391 
Q 1994 391 2212 530 
Q 2431 669 2431 922 
Q 2431 1156 2273 1281 
Q 2116 1406 1581 1522 
L 1381 1569 
Q 847 1681 609 1914 
Q 372 2147 372 2553 
Q 372 3047 722 3315 
Q 1072 3584 1716 3584 
Q 2034 3584 2315 3537 
Q 2597 3491 2834 3397 
z
" transform="scale(0.015625)"/>
      <path id="DejaVuSans-70" d="M 1159 525 
L 1159 -1331 
L 581 -1331 
L 581 3500 
L 1159 3500 
L 1159 2969 
Q 1341 3281 1617 3432 
Q 1894 3584 2278 3584 
Q 2916 3584 3314 3078 
Q 3713 2572 3713 1747 
Q 3713 922 3314 415 
Q 2916 -91 2278 -91 
Q 1894 -91 1617 61 
Q 1341 213 1159 525 
z
M 3116 1747 
Q 3116 2381 2855 2742 
Q 2594 3103 2138 3103 
Q 1681 3103 1420 2742 
Q 1159 2381 1159 1747 
Q 1159 1113 1420 752 
Q 1681 391 2138 391 
Q 2594 391 2855 752 
Q 3116 1113 3116 1747 
z
" transform="scale(0.015625)"/>
      <path id="DejaVuSans-6d" d="M 3328 2828 
Q 3544 3216 3844 3400 
Q 4144 3584 4550 3584 
Q 5097 3584 5394 3201 
Q 5691 2819 5691 2113 
L 5691 0 
L 5113 0 
L 5113 2094 
Q 5113 2597 4934 2840 
Q 4756 3084 4391 3084 
Q 3944 3084 3684 2787 
Q 3425 2491 3425 1978 
L 3425 0 
L 2847 0 
L 2847 2094 
Q 2847 2600 2669 2842 
Q 2491 3084 2119 3084 
Q 1678 3084 1418 2786 
Q 1159 2488 1159 1978 
L 1159 0 
L 581 0 
L 581 3500 
L 1159 3500 
L 1159 2956 
Q 1356 3278 1631 3431 
Q 1906 3584 2284 3584 
Q 2666 3584 2933 3390 
Q 3200 3197 3328 2828 
z
" transform="scale(0.015625)"/>
      <path id="DejaVuSans-74" d="M 1172 4494 
L 1172 3500 
L 2356 3500 
L 2356 3053 
L 1172 3053 
L 1172 1153 
Q 1172 725 1289 603 
Q 1406 481 1766 481 
L 2356 481 
L 2356 0 
L 1766 0 
Q 1100 0 847 248 
Q 594 497 594 1153 
L 594 3053 
L 172 3053 
L 172 3500 
L 594 3500 
L 594 4494 
L 1172 4494 
z
" transform="scale(0.015625)"/>
      <path id="DejaVuSans-2014" d="M 313 1978 
L 6088 1978 
L 6088 1528 
L 313 1528 
L 313 1978 
z
" transform="scale(0.015625)"/>
      <path id="DejaVuSans-6f" d="M 1959 3097 
Q 1497 3097 1228 2736 
Q 959 2375 959 1747 
Q 959 1119 1226 758 
Q 1494 397 1959 397 
Q 2419 397 2687 759 
Q 2956 1122 2956 1747 
Q 2956 2369 2687 2733 
Q 2419 3097 1959 3097 
z
M 1959 3584 
Q 2709 3584 3137 3096 
Q 3566 2609 3566 1747 
Q 3566 888 3137 398 
Q 2709 -91 1959 -91 
Q 1206 -91 779 398 
Q 353 888 353 1747 
Q 353 2609 779 3096 
Q 1206 3584 1959 3584 
z
" transform="scale(0.015625)"/>
      <path id="DejaVuSans-77" d="M 269 3500 
L 844 3500 
L 1563 769 
L 2278 3500 
L 2956 3500 
L 3675 769 
L 4391 3500 
L 4966 3500 
L 4050 0 
L 3372 0 
L 2619 2869 
L 1863 0 
L 1184 0 
L 269 3500 
z
" transform="scale(0.015625)"/>
      <path id="DejaVuSans-62" d="M 3116 1747 
Q 3116 2381 2855 2742 
Q 2594 3103 2138 3103 
Q 1681 3103 1420 2742 
Q 1159 2381 1159 1747 
Q 1159 1113 1420 752 
Q 1681 391 2138 391 
Q 2594 391 2855 752 
Q 3116 1113 3116 1747 
z
M 1159 2969 
Q 1341 3281 1617 3432 
Q 1894 3584 2278 3584 
Q 2916 3584 3314 3078 
Q 3713 2572 3713 1747 
Q 3713 922 3314 415 
Q 2916 -91 2278 -91 
Q 1894 -91 1617 61 
Q 1341 213 1159 525 
L 1159 0 
L 581 0 
L 581 4863 
L 1159 4863 
L 1159 2969 
z
" transform="scale(0.015625)"/>
      <path id="DejaVuSans-59" d="M -13 4666 
L 666 4666 
L 1959 2747 
L 3244 4666 
L 3922 4666 
L 2272 2222 
L 2272 0 
L 1638 0 
L 1638 2222 
L -13 4666 
z
" transform="scale(0.015625)"/>
      <path id="DejaVuSans-41" d="M 2188 4044 
L 1331 1722 
L 3047 1722 
L 2188 4044 
z
M 1831 4666 
L 2547 4666 
L 4325 0 
L 3669 0 
L 3244 1197 
L 1141 1197 
L 716 0 
L 50 0 
L 1831 4666 
z
" transform="scale(0.015625)"/>
      <path id="DejaVuSans-4d" d="M 628 4666 
L 1569 4666 
L 2759 1491 
L 3956 4666 
L 4897 4666 
L 4897 0 
L 4281 0 
L 4281 4097 
L 3078 897 
L 2444 897 
L 1241 4097 
L 1241 0 
L 628 0 
L 628 4666 
z
" transform="scale(0.015625)"/>
      <path id="DejaVuSans-4c" d="M 628 4666 
L 1259 4666 
L 1259 531 
L 3531 531 
L 3531 0 
L 628 0 
L 628 4666 
z
" transform="scale(0.015625)"/>
      <path id="DejaVuSans-50" d="M 1259 4147 
L 1259 2394 
L 2053 2394 
Q 2494 2394 2734 2622 
Q 2975 2850 2975 3272 
Q 2975 3691 2734 3919 
Q 2494 4147 2053 4147 
L 1259 4147 
z
M 628 4666 
L 2053 4666 
Q 2838 4666 3239 4311 
Q 3641 3956 3641 3272 
Q 3641 2581 3239 2228 
Q 2838 1875 2053 1875 
L 1259 1875 
L 1259 0 
L 628 0 
L 628 4666 
z
" transform="scale(0.015625)"/>
     </defs>
     <use xlink:href="#DejaVuSans-45"/>
     <use xlink:href="#DejaVuSans-61" transform="translate(63.183594 0)"/>
     <use xlink:href="#DejaVuSans-63" transform="translate(124.462891 0)"/>
     <use xlink:href="#DejaVuSans-68" transform="translate(179.443359 0)"/>
     <use xlink:href="#DejaVuSans-20" transform="translate(242.822266 0)"/>
     <use xlink:href="#DejaVuSans-63" transform="translate(274.609375 0)"/>
     <use xlink:href="#DejaVuSans-75" transform="translate(329.589844 0)"/>
     <use xlink:href="#DejaVuSans-72" transform="translate(392.96875 0)"/>
     <use xlink:href="#DejaVuSans-76" transform="translate(434.082031 0)"/>
     <use xlink:href="#DejaVuSans-65" transform="translate(493.261719 0)"/>
     <use xlink:href="#DejaVuSans-20" transform="translate(554.785156 0)"/>
     <use xlink:href="#DejaVuSans-69" transform="translate(586.572266 0)"/>
     <use xlink:href="#DejaVuSans-73" transform="translate(614.355469 0)"/>
     <use xlink:href="#DejaVuSans-20" transform="translate(666.455078 0)"/>
     <use xlink:href="#DejaVuSans-70" transform="translate(698.242188 0)"/>
     <use xlink:href="#DejaVuSans-61" transform="translate(761.71875 0)"/>
     <use xlink:href="#DejaVuSans-72" transform="translate(822.998047 0)"/>
     <use xlink:href="#DejaVuSans-61" transform="translate(864.111328 0)"/>
     <use xlink:href="#DejaVuSans-6d" transform="translate(925.390625 0)"/>
     <use xlink:href="#DejaVuSans-65" transform="translate(1022.802734 0)"/>
     <use xlink:href="#DejaVuSans-74" transform="translate(1084.326172 0)"/>
     <use xlink:href="#DejaVuSans-72" transform="translate(1123.535156 0)"/>
     <use xlink:href="#DejaVuSans-69" transform="translate(1164.648438 0)"/>
     <use xlink:href="#DejaVuSans-63" transform="translate(1192.431641 0)"/>
     <use xlink:href="#DejaVuSans-20" transform="translate(1247.412109 0)"/>
     <use xlink:href="#DejaVuSans-2014" transform="translate(1279.199219 0)"/>
     <use xlink:href="#DejaVuSans-20" transform="translate(1379.199219 0)"/>
     <use xlink:href="#DejaVuSans-65" transform="translate(1410.986328 0)"/>
     <use xlink:href="#DejaVuSans-76" transform="translate(1472.509766 0)"/>
     <use xlink:href="#DejaVuSans-65" transform="translate(1531.689453 0)"/>
     <use xlink:href="#DejaVuSans-72" transform="translate(1593.212891 0)"/>
     <use xlink:href="#DejaVuSans-79" transform="translate(1634.326172 0)"/>
     <use xlink:href="#DejaVuSans-20" transform="translate(1693.505859 0)"/>
     <use xlink:href="#DejaVuSans-73" transform="translate(1725.292969 0)"/>
     <use xlink:href="#DejaVuSans-68" transform="translate(1777.392578 0)"/>
     <use xlink:href="#DejaVuSans-61" transform="translate(1840.771484 0)"/>
     <use xlink:href="#DejaVuSans-70" transform="translate(1902.050781 0)"/>
     <use xlink:href="#DejaVuSans-65" transform="translate(1965.527344 0)"/>
     <use xlink:href="#DejaVuSans-20" transform="translate(2027.050781 0)"/>
     <use xlink:href="#DejaVuSans-73" transform="translate(2058.837891 0)"/>
     <use xlink:href="#DejaVuSans-68" transform="translate(2110.9375 0)"/>
     <use xlink:href="#DejaVuSans-6f" transform="translate(2174.316406 0)"/>
     <use xlink:href="#DejaVuSans-77" transform="translate(2235.498047 0)"/>
     <use xlink:href="#DejaVuSans-6e" transform="translate(2317.285156 0)"/>
     <use xlink:href="#DejaVuSans-20" transform="translate(2380.664062 0)"/>
     <use xlink:href="#DejaVuSans-68" transform="translate(2412.451172 0)"/>
     <use xlink:href="#DejaVuSans-65" transform="translate(2475.830078 0)"/>
     <use xlink:href="#DejaVuSans-72" transform="translate(2537.353516 0)"/>
     <use xlink:href="#DejaVuSans-65" transform="translate(2576.216797 0)"/>
     <use xlink:href="#DejaVuSans-20" transform="translate(2637.740234 0)"/>
     <use xlink:href="#DejaVuSans-63" transform="translate(2669.527344 0)"/>
     <use xlink:href="#DejaVuSans-61" transform="translate(2724.507812 0)"/>
     <use xlink:href="#DejaVuSans-6e" transform="translate(2785.787109 0)"/>
     <use xlink:href="#DejaVuSans-20" transform="translate(2849.166016 0)"/>
     <use xlink:href="#DejaVuSans-62" transform="translate(2880.953125 0)"/>
     <use xlink:href="#DejaVuSans-65" transform="translate(2944.429688 0)"/>
     <use xlink:href="#DejaVuSans-20" transform="translate(3005.953125 0)"/>
     <use xlink:href="#DejaVuSans-74" transform="translate(3037.740234 0)"/>
     <use xlink:href="#DejaVuSans-75" transform="translate(3076.949219 0)"/>
     <use xlink:href="#DejaVuSans-6e" transform="translate(3140.328125 0)"/>
     <use xlink:href="#DejaVuSans-65" transform="translate(3203.707031 0)"/>
     <use xlink:href="#DejaVuSans-64" transform="translate(3265.230469 0)"/>
     <use xlink:href="#DejaVuSans-20" transform="translate(3328.707031 0)"/>
     <use xlink:href="#DejaVuSans-76" transform="translate(3360.494141 0)"/>
     <use xlink:href="#DejaVuSans-69" transform="translate(3419.673828 0)"/>
     <use xlink:href="#DejaVuSans-61" transform="translate(3447.457031 0)"/>
     <use xlink:href="#DejaVuSans-20" transform="translate(3508.736328 0)"/>
     <use xlink:href="#DejaVuSans-59" transform="translate(3540.523438 0)"/>
     <use xlink:href="#DejaVuSans-41" transform="translate(3593.857422 0)"/>
     <use xlink:href="#DejaVuSans-4d" transform="translate(3662.265625 0)"/>
     <use xlink:href="#DejaVuSans-4c" transform="translate(3748.544922 0)"/>
     <use xlink:href="#DejaVuSans-20" transform="translate(3804.257812 0)"/>
     <use xlink:href="#DejaVuSans-6f" transform="translate(3836.044922 0)"/>
     <use xlink:href="#DejaVuSans-72" transform="translate(3897.226562 0)"/>
     <use xlink:href="#DejaVuSans-20" transform="translate(3938.339844 0)"/>
     <use xlink:href="#DejaVuSans-50" transform="translate(3970.126953 0)"/>
     <use xlink:href="#DejaVuSans-79" transform="translate(4030.429688 0)"/>
     <use xlink:href="#DejaVuSans-74" transform="translate(4089.609375 0)"/>
     <use xlink:href="#DejaVuSans-68" transform="translate(4128.818359 0)"/>
     <use xlink:href="#DejaVuSans-6f" transform="translate(4192.197266 0)"/>
     <use xlink:href="#DejaVuSans-6e" transform="translate(4253.378906 0)"/>
     <use xlink:href="#DejaVuSans-2e" transform="translate(4316.757812 0)"/>
    </g>
   </g>
   <g id="text_23">
    <!-- curveforge — shipped target curves at default parameters -->
    <g transform="translate(49.732656 17.077969) scale(0.13 -0.13)">
     <defs>
      <path id="DejaVuSans-Bold-63" d="M 3366 3391 
L 3366 2478 
Q 3138 2634 2908 2709 
Q 2678 2784 2431 2784 
Q 1963 2784 1702 2511 
Q 1441 2238 1441 1747 
Q 1441 1256 1702 982 
Q 1963 709 2431 709 
Q 2694 709 2930 787 
Q 3166 866 3366 1019 
L 3366 103 
Q 3103 6 2833 -42 
Q 2563 -91 2291 -91 
Q 1344 -91 809 395 
Q 275 881 275 1747 
Q 275 2613 809 3098 
Q 1344 3584 2291 3584 
Q 2566 3584 2833 3536 
Q 3100 3488 3366 3391 
z
" transform="scale(0.015625)"/>
      <path id="DejaVuSans-Bold-75" d="M 500 1363 
L 500 3500 
L 1625 3500 
L 1625 3150 
Q 1625 2866 1622 2436 
Q 1619 2006 1619 1863 
Q 1619 1441 1641 1255 
Q 1663 1069 1716 984 
Q 1784 875 1895 815 
Q 2006 756 2150 756 
Q 2500 756 2700 1025 
Q 2900 1294 2900 1772 
L 2900 3500 
L 4019 3500 
L 4019 0 
L 2900 0 
L 2900 506 
Q 2647 200 2364 54 
Q 2081 -91 1741 -91 
Q 1134 -91 817 281 
Q 500 653 500 1363 
z
" transform="scale(0.015625)"/>
      <path id="DejaVuSans-Bold-72" d="M 3138 2547 
Q 2991 2616 2845 2648 
Q 2700 2681 2553 2681 
Q 2122 2681 1889 2404 
Q 1656 2128 1656 1613 
L 1656 0 
L 538 0 
L 538 3500 
L 1656 3500 
L 1656 2925 
Q 1872 3269 2151 3426 
Q 2431 3584 2822 3584 
Q 2878 3584 2943 3579 
Q 3009 3575 3134 3559 
L 3138 2547 
z
" transform="scale(0.015625)"/>
      <path id="DejaVuSans-Bold-76" d="M 97 3500 
L 1216 3500 
L 2088 1081 
L 2956 3500 
L 4078 3500 
L 2700 0 
L 1472 0 
L 97 3500 
z
" transform="scale(0.015625)"/>
      <path id="DejaVuSans-Bold-65" d="M 4031 1759 
L 4031 1441 
L 1416 1441 
Q 1456 1047 1700 850 
Q 1944 653 2381 653 
Q 2734 653 3104 758 
Q 3475 863 3866 1075 
L 3866 213 
Q 3469 63 3072 -14 
Q 2675 -91 2278 -91 
Q 1328 -91 801 392 
Q 275 875 275 1747 
Q 275 2603 792 3093 
Q 1309 3584 2216 3584 
Q 3041 3584 3536 3087 
Q 4031 2591 4031 1759 
z
M 2881 2131 
Q 2881 2450 2695 2645 
Q 2509 2841 2209 2841 
Q 1884 2841 1681 2658 
Q 1478 2475 1428 2131 
L 2881 2131 
z
" transform="scale(0.015625)"/>
      <path id="DejaVuSans-Bold-66" d="M 2841 4863 
L 2841 4128 
L 2222 4128 
Q 1984 4128 1890 4042 
Q 1797 3956 1797 3744 
L 1797 3500 
L 2753 3500 
L 2753 2700 
L 1797 2700 
L 1797 0 
L 678 0 
L 678 2700 
L 122 2700 
L 122 3500 
L 678 3500 
L 678 3744 
Q 678 4316 997 4589 
Q 1316 4863 1984 4863 
L 2841 4863 
z
" transform="scale(0.015625)"/>
      <path id="DejaVuSans-Bold-6f" d="M 2203 2784 
Q 1831 2784 1636 2517 
Q 1441 2250 1441 1747 
Q 1441 1244 1636 976 
Q 1831 709 2203 709 
Q 2569 709 2762 976 
Q 2956 1244 2956 1747 
Q 2956 2250 2762 2517 
Q 2569 2784 2203 2784 
z
M 2203 3584 
Q 3106 3584 3614 3096 
Q 4122 2609 4122 1747 
Q 4122 884 3614 396 
Q 3106 -91 2203 -91 
Q 1297 -91 786 396 
Q 275 884 275 1747 
Q 275 2609 786 3096 
Q 1297 3584 2203 3584 
z
" transform="scale(0.015625)"/>
      <path id="DejaVuSans-Bold-67" d="M 2919 594 
Q 2688 288 2409 144 
Q 2131 0 1766 0 
Q 1125 0 706 504 
Q 288 1009 288 1791 
Q 288 2575 706 3076 
Q 1125 3578 1766 3578 
Q 2131 3578 2409 3434 
Q 2688 3291 2919 2981 
L 2919 3500 
L 4044 3500 
L 4044 353 
Q 4044 -491 3511 -936 
Q 2978 -1381 1966 -1381 
Q 1638 -1381 1331 -1331 
Q 1025 -1281 716 -1178 
L 716 -306 
Q 1009 -475 1290 -558 
Q 1572 -641 1856 -641 
Q 2406 -641 2662 -400 
Q 2919 -159 2919 353 
L 2919 594 
z
M 2181 2772 
Q 1834 2772 1640 2515 
Q 1447 2259 1447 1791 
Q 1447 1309 1634 1061 
Q 1822 813 2181 813 
Q 2531 813 2725 1069 
Q 2919 1325 2919 1791 
Q 2919 2259 2725 2515 
Q 2531 2772 2181 2772 
z
" transform="scale(0.015625)"/>
      <path id="DejaVuSans-Bold-20" transform="scale(0.015625)"/>
      <path id="DejaVuSans-Bold-2014" d="M 344 2156 
L 6056 2156 
L 6056 1350 
L 344 1350 
L 344 2156 
z
" transform="scale(0.015625)"/>
      <path id="DejaVuSans-Bold-73" d="M 3272 3391 
L 3272 2541 
Q 2913 2691 2578 2766 
Q 2244 2841 1947 2841 
Q 1628 2841 1473 2761 
Q 1319 2681 1319 2516 
Q 1319 2381 1436 2309 
Q 1553 2238 1856 2203 
L 2053 2175 
Q 2913 2066 3209 1816 
Q 3506 1566 3506 1031 
Q 3506 472 3093 190 
Q 2681 -91 1863 -91 
Q 1516 -91 1145 -36 
Q 775 19 384 128 
L 384 978 
Q 719 816 1070 734 
Q 1422 653 1784 653 
Q 2113 653 2278 743 
Q 2444 834 2444 1013 
Q 2444 1163 2330 1236 
Q 2216 1309 1875 1350 
L 1678 1375 
Q 931 1469 631 1722 
Q 331 1975 331 2491 
Q 331 3047 712 3315 
Q 1094 3584 1881 3584 
Q 2191 3584 2531 3537 
Q 2872 3491 3272 3391 
z
" transform="scale(0.015625)"/>
      <path id="DejaVuSans-Bold-68" d="M 4056 2131 
L 4056 0 
L 2931 0 
L 2931 347 
L 2931 1625 
Q 2931 2084 2911 2256 
Q 2891 2428 2841 2509 
Q 2775 2619 2662 2680 
Q 2550 2741 2406 2741 
Q 2056 2741 1856 2470 
Q 1656 2200 1656 1722 
L 1656 0 
L 538 0 
L 538 4863 
L 1656 4863 
L 1656 2988 
Q 1909 3294 2193 3439 
Q 2478 3584 2822 3584 
Q 3428 3584 3742 3212 
Q 4056 2841 4056 2131 
z
" transform="scale(0.015625)"/>
      <path id="DejaVuSans-Bold-69" d="M 538 3500 
L 1656 3500 
L 1656 0 
L 538 0 
L 538 3500 
z
M 538 4863 
L 1656 4863 
L 1656 3950 
L 538 3950 
L 538 4863 
z
" transform="scale(0.015625)"/>
      <path id="DejaVuSans-Bold-70" d="M 1656 506 
L 1656 -1331 
L 538 -1331 
L 538 3500 
L 1656 3500 
L 1656 2988 
Q 1888 3294 2169 3439 
Q 2450 3584 2816 3584 
Q 3463 3584 3878 3070 
Q 4294 2556 4294 1747 
Q 4294 938 3878 423 
Q 3463 -91 2816 -91 
Q 2450 -91 2169 54 
Q 1888 200 1656 506 
z
M 2400 2772 
Q 2041 2772 1848 2508 
Q 1656 2244 1656 1747 
Q 1656 1250 1848 986 
Q 2041 722 2400 722 
Q 2759 722 2948 984 
Q 3138 1247 3138 1747 
Q 3138 2247 2948 2509 
Q 2759 2772 2400 2772 
z
" transform="scale(0.015625)"/>
      <path id="DejaVuSans-Bold-64" d="M 2919 2988 
L 2919 4863 
L 4044 4863 
L 4044 0 
L 2919 0 
L 2919 506 
Q 2688 197 2409 53 
Q 2131 -91 1766 -91 
Q 1119 -91 703 423 
Q 288 938 288 1747 
Q 288 2556 703 3070 
Q 1119 3584 1766 3584 
Q 2128 3584 2408 3439 
Q 2688 3294 2919 2988 
z
M 2181 722 
Q 2541 722 2730 984 
Q 2919 1247 2919 1747 
Q 2919 2247 2730 2509 
Q 2541 2772 2181 2772 
Q 1825 2772 1636 2509 
Q 1447 2247 1447 1747 
Q 1447 1247 1636 984 
Q 1825 722 2181 722 
z
" transform="scale(0.015625)"/>
      <path id="DejaVuSans-Bold-74" d="M 1759 4494 
L 1759 3500 
L 2913 3500 
L 2913 2700 
L 1759 2700 
L 1759 1216 
Q 1759 972 1856 886 
Q 1953 800 2241 800 
L 2816 800 
L 2816 0 
L 1856 0 
Q 1194 0 917 276 
Q 641 553 641 1216 
L 641 2700 
L 84 2700 
L 84 3500 
L 641 3500 
L 641 4494 
L 1759 4494 
z
" transform="scale(0.015625)"/>
      <path id="DejaVuSans-Bold-61" d="M 2106 1575 
Q 1756 1575 1579 1456 
Q 1403 1338 1403 1106 
Q 1403 894 1545 773 
Q 1688 653 1941 653 
Q 2256 653 2472 879 
Q 2688 1106 2688 1447 
L 2688 1575 
L 2106 1575 
z
M 3816 1997 
L 3816 0 
L 2688 0 
L 2688 519 
Q 2463 200 2181 54 
Q 1900 -91 1497 -91 
Q 953 -91 614 226 
Q 275 544 275 1050 
Q 275 1666 698 1953 
Q 1122 2241 2028 2241 
L 2688 2241 
L 2688 2328 
Q 2688 2594 2478 2717 
Q 2269 2841 1825 2841 
Q 1466 2841 1156 2769 
Q 847 2697 581 2553 
L 581 3406 
Q 941 3494 1303 3539 
Q 1666 3584 2028 3584 
Q 2975 3584 3395 3211 
Q 3816 2838 3816 1997 
z
" transform="scale(0.015625)"/>
      <path id="DejaVuSans-Bold-6c" d="M 538 4863 
L 1656 4863 
L 1656 0 
L 538 0 
L 538 4863 
z
" transform="scale(0.015625)"/>
      <path id="DejaVuSans-Bold-6d" d="M 3781 2919 
Q 3994 3244 4286 3414 
Q 4578 3584 4928 3584 
Q 5531 3584 5847 3212 
Q 6163 2841 6163 2131 
L 6163 0 
L 5038 0 
L 5038 1825 
Q 5041 1866 5042 1909 
Q 5044 1953 5044 2034 
Q 5044 2406 4934 2573 
Q 4825 2741 4581 2741 
Q 4263 2741 4089 2478 
Q 3916 2216 3909 1719 
L 3909 0 
L 2784 0 
L 2784 1825 
Q 2784 2406 2684 2573 
Q 2584 2741 2328 2741 
Q 2006 2741 1831 2477 
Q 1656 2213 1656 1722 
L 1656 0 
L 531 0 
L 531 3500 
L 1656 3500 
L 1656 2988 
Q 1863 3284 2130 3434 
Q 2397 3584 2719 3584 
Q 3081 3584 3359 3409 
Q 3638 3234 3781 2919 
z
" transform="scale(0.015625)"/>
     </defs>
     <use xlink:href="#DejaVuSans-Bold-63"/>
     <use xlink:href="#DejaVuSans-Bold-75" transform="translate(59.277344 0)"/>
     <use xlink:href="#DejaVuSans-Bold-72" transform="translate(130.46875 0)"/>
     <use xlink:href="#DejaVuSans-Bold-76" transform="translate(179.785156 0)"/>
     <use xlink:href="#DejaVuSans-Bold-65" transform="translate(244.970703 0)"/>
     <use xlink:href="#DejaVuSans-Bold-66" transform="translate(312.792969 0)"/>
     <use xlink:href="#DejaVuSans-Bold-6f" transform="translate(356.298828 0)"/>
     <use xlink:href="#DejaVuSans-Bold-72" transform="translate(425 0)"/>
     <use xlink:href="#DejaVuSans-Bold-67" transform="translate(474.316406 0)"/>
     <use xlink:href="#DejaVuSans-Bold-65" transform="translate(545.898438 0)"/>
     <use xlink:href="#DejaVuSans-Bold-20" transform="translate(613.720703 0)"/>
     <use xlink:href="#DejaVuSans-Bold-2014" transform="translate(648.535156 0)"/>
     <use xlink:href="#DejaVuSans-Bold-20" transform="translate(748.535156 0)"/>
     <use xlink:href="#DejaVuSans-Bold-73" transform="translate(783.349609 0)"/>
     <use xlink:href="#DejaVuSans-Bold-68" transform="translate(842.871094 0)"/>
     <use xlink:href="#DejaVuSans-Bold-69" transform="translate(914.0625 0)"/>
     <use xlink:href="#DejaVuSans-Bold-70" transform="translate(948.339844 0)"/>
     <use xlink:href="#DejaVuSans-Bold-70" transform="translate(1019.921875 0)"/>
     <use xlink:href="#DejaVuSans-Bold-65" transform="translate(1091.503906 0)"/>
     <use xlink:href="#DejaVuSans-Bold-64" transform="translate(1159.326172 0)"/>
     <use xlink:href="#DejaVuSans-Bold-20" transform="translate(1230.908203 0)"/>
     <use xlink:href="#DejaVuSans-Bold-74" transform="translate(1265.722656 0)"/>
     <use xlink:href="#DejaVuSans-Bold-61" transform="translate(1313.525391 0)"/>
     <use xlink:href="#DejaVuSans-Bold-72" transform="translate(1381.005859 0)"/>
     <use xlink:href="#DejaVuSans-Bold-67" transform="translate(1430.322266 0)"/>
     <use xlink:href="#DejaVuSans-Bold-65" transform="translate(1501.904297 0)"/>
     <use xlink:href="#DejaVuSans-Bold-74" transform="translate(1569.726562 0)"/>
     <use xlink:href="#DejaVuSans-Bold-20" transform="translate(1617.529297 0)"/>
     <use xlink:href="#DejaVuSans-Bold-63" transform="translate(1652.34375 0)"/>
     <use xlink:href="#DejaVuSans-Bold-75" transform="translate(1711.621094 0)"/>
     <use xlink:href="#DejaVuSans-Bold-72" transform="translate(1782.8125 0)"/>
     <use xlink:href="#DejaVuSans-Bold-76" transform="translate(1832.128906 0)"/>
     <use xlink:href="#DejaVuSans-Bold-65" transform="translate(1897.314453 0)"/>
     <use xlink:href="#DejaVuSans-Bold-73" transform="translate(1965.136719 0)"/>
     <use xlink:href="#DejaVuSans-Bold-20" transform="translate(2024.658203 0)"/>
     <use xlink:href="#DejaVuSans-Bold-61" transform="translate(2059.472656 0)"/>
     <use xlink:href="#DejaVuSans-Bold-74" transform="translate(2126.953125 0)"/>
     <use xlink:href="#DejaVuSans-Bold-20" transform="translate(2174.755859 0)"/>
     <use xlink:href="#DejaVuSans-Bold-64" transform="translate(2209.570312 0)"/>
     <use xlink:href="#DejaVuSans-Bold-65" transform="translate(2281.152344 0)"/>
     <use xlink:href="#DejaVuSans-Bold-66" transform="translate(2348.974609 0)"/>
     <use xlink:href="#DejaVuSans-Bold-61" transform="translate(2392.480469 0)"/>
     <use xlink:href="#DejaVuSans-Bold-75" transform="translate(2459.960938 0)"/>
     <use xlink:href="#DejaVuSans-Bold-6c" transform="translate(2531.152344 0)"/>
     <use xlink:href="#DejaVuSans-Bold-74" transform="translate(2565.429688 0)"/>
     <use xlink:href="#DejaVuSans-Bold-20" transform="translate(2613.232422 0)"/>
     <use xlink:href="#DejaVuSans-Bold-70" transform="translate(2648.046875 0)"/>
     <use xlink:href="#DejaVuSans-Bold-61" transform="translate(2719.628906 0)"/>
     <use xlink:href="#DejaVuSans-Bold-72" transform="translate(2787.109375 0)"/>
     <use xlink:href="#DejaVuSans-Bold-61" transform="translate(2836.425781 0)"/>
     <use xlink:href="#DejaVuSans-Bold-6d" transform="translate(2903.90625 0)"/>
     <use xlink:href="#DejaVuSans-Bold-65" transform="translate(3008.105469 0)"/>
     <use xlink:href="#DejaVuSans-Bold-74" transform="translate(3075.927734 0)"/>
     <use xlink:href="#DejaVuSans-Bold-65" transform="translate(3123.730469 0)"/>
     <use xlink:href="#DejaVuSans-Bold-72" transform="translate(3191.552734 0)"/>
     <use xlink:href="#DejaVuSans-Bold-73" transform="translate(3240.869141 0)"/>
    </g>
   </g>
   <g id="legend_1">
    <g id="patch_5">
     <path d="M 718.124844 121.539844 
L 836.387656 121.539844 
L 836.387656 39.577969 
L 718.124844 39.577969 
z
" style="fill: #ffffff; opacity: 0.92; stroke: #cccccc; stroke-width: 0.5; stroke-linejoin: miter"/>
    </g>
    <g id="line2d_86">
     <path d="M 721.724844 46.866562 
L 730.724844 46.866562 
L 739.724844 46.866562 
" style="fill: none; stroke: #2e5eaa; stroke-width: 2.2; stroke-linecap: square"/>
    </g>
    <g id="text_24">
     <!-- Harman -->
     <g transform="translate(746.924844 50.016562) scale(0.09 -0.09)">
      <use xlink:href="#DejaVuSans-48"/>
      <use xlink:href="#DejaVuSans-61" transform="translate(75.195312 0)"/>
      <use xlink:href="#DejaVuSans-72" transform="translate(136.474609 0)"/>
      <use xlink:href="#DejaVuSans-6d" transform="translate(175.837891 0)"/>
      <use xlink:href="#DejaVuSans-61" transform="translate(273.25 0)"/>
      <use xlink:href="#DejaVuSans-6e" transform="translate(334.529297 0)"/>
     </g>
    </g>
    <g id="line2d_87">
     <path d="M 721.724844 60.076875 
L 730.724844 60.076875 
L 739.724844 60.076875 
" style="fill: none; stroke: #d17a22; stroke-width: 2.2; stroke-linecap: square"/>
    </g>
    <g id="text_25">
     <!-- Olive-Welti in-room -->
     <g transform="translate(746.924844 63.226875) scale(0.09 -0.09)">
      <defs>
       <path id="DejaVuSans-4f" d="M 2522 4238 
Q 1834 4238 1429 3725 
Q 1025 3213 1025 2328 
Q 1025 1447 1429 934 
Q 1834 422 2522 422 
Q 3209 422 3611 934 
Q 4013 1447 4013 2328 
Q 4013 3213 3611 3725 
Q 3209 4238 2522 4238 
z
M 2522 4750 
Q 3503 4750 4090 4092 
Q 4678 3434 4678 2328 
Q 4678 1225 4090 567 
Q 3503 -91 2522 -91 
Q 1538 -91 948 565 
Q 359 1222 359 2328 
Q 359 3434 948 4092 
Q 1538 4750 2522 4750 
z
" transform="scale(0.015625)"/>
       <path id="DejaVuSans-6c" d="M 603 4863 
L 1178 4863 
L 1178 0 
L 603 0 
L 603 4863 
z
" transform="scale(0.015625)"/>
       <path id="DejaVuSans-2d" d="M 313 2009 
L 1997 2009 
L 1997 1497 
L 313 1497 
L 313 2009 
z
" transform="scale(0.015625)"/>
       <path id="DejaVuSans-57" d="M 213 4666 
L 850 4666 
L 1831 722 
L 2809 4666 
L 3519 4666 
L 4500 722 
L 5478 4666 
L 6119 4666 
L 4947 0 
L 4153 0 
L 3169 4050 
L 2175 0 
L 1381 0 
L 213 4666 
z
" transform="scale(0.015625)"/>
      </defs>
      <use xlink:href="#DejaVuSans-4f"/>
      <use xlink:href="#DejaVuSans-6c" transform="translate(78.710938 0)"/>
      <use xlink:href="#DejaVuSans-69" transform="translate(106.494141 0)"/>
      <use xlink:href="#DejaVuSans-76" transform="translate(134.277344 0)"/>
      <use xlink:href="#DejaVuSans-65" transform="translate(193.457031 0)"/>
      <use xlink:href="#DejaVuSans-2d" transform="translate(254.980469 0)"/>
      <use xlink:href="#DejaVuSans-57" transform="translate(287.064453 0)"/>
      <use xlink:href="#DejaVuSans-65" transform="translate(380.066406 0)"/>
      <use xlink:href="#DejaVuSans-6c" transform="translate(441.589844 0)"/>
      <use xlink:href="#DejaVuSans-74" transform="translate(469.373047 0)"/>
      <use xlink:href="#DejaVuSans-69" transform="translate(508.582031 0)"/>
      <use xlink:href="#DejaVuSans-20" transform="translate(536.365234 0)"/>
      <use xlink:href="#DejaVuSans-69" transform="translate(568.152344 0)"/>
      <use xlink:href="#DejaVuSans-6e" transform="translate(595.935547 0)"/>
      <use xlink:href="#DejaVuSans-2d" transform="translate(659.314453 0)"/>
      <use xlink:href="#DejaVuSans-72" transform="translate(695.398438 0)"/>
      <use xlink:href="#DejaVuSans-6f" transform="translate(734.261719 0)"/>
      <use xlink:href="#DejaVuSans-6f" transform="translate(795.443359 0)"/>
      <use xlink:href="#DejaVuSans-6d" transform="translate(856.625 0)"/>
     </g>
    </g>
    <g id="line2d_88">
     <path d="M 721.724844 73.287187 
L 730.724844 73.287187 
L 739.724844 73.287187 
" style="fill: none; stroke: #3e8e5a; stroke-width: 2.2; stroke-linecap: square"/>
    </g>
    <g id="text_26">
     <!-- Brüel &amp; Kjær 1974 -->
     <g transform="translate(746.924844 76.437187) scale(0.09 -0.09)">
      <defs>
       <path id="DejaVuSans-fc" d="M 544 1381 
L 544 3500 
L 1119 3500 
L 1119 1403 
Q 1119 906 1312 657 
Q 1506 409 1894 409 
Q 2359 409 2629 706 
Q 2900 1003 2900 1516 
L 2900 3500 
L 3475 3500 
L 3475 0 
L 2900 0 
L 2900 538 
Q 2691 219 2414 64 
Q 2138 -91 1772 -91 
Q 1169 -91 856 284 
Q 544 659 544 1381 
z
M 1991 3584 
L 1991 3584 
z
M 2278 4850 
L 2912 4850 
L 2912 4219 
L 2278 4219 
L 2278 4850 
z
M 1056 4850 
L 1690 4850 
L 1690 4219 
L 1056 4219 
L 1056 4850 
z
" transform="scale(0.015625)"/>
       <path id="DejaVuSans-26" d="M 1556 2509 
Q 1272 2256 1139 2004 
Q 1006 1753 1006 1478 
Q 1006 1022 1337 719 
Q 1669 416 2169 416 
Q 2466 416 2725 514 
Q 2984 613 3213 813 
L 1556 2509 
z
M 1997 2859 
L 3584 1234 
Q 3769 1513 3872 1830 
Q 3975 2147 3994 2503 
L 4575 2503 
Q 4538 2091 4375 1687 
Q 4213 1284 3922 891 
L 4794 0 
L 4006 0 
L 3559 459 
Q 3234 181 2878 45 
Q 2522 -91 2113 -91 
Q 1359 -91 881 339 
Q 403 769 403 1441 
Q 403 1841 612 2192 
Q 822 2544 1241 2853 
Q 1091 3050 1012 3245 
Q 934 3441 934 3628 
Q 934 4134 1281 4442 
Q 1628 4750 2203 4750 
Q 2463 4750 2720 4694 
Q 2978 4638 3244 4525 
L 3244 3956 
Q 2972 4103 2725 4179 
Q 2478 4256 2266 4256 
Q 1938 4256 1733 4082 
Q 1528 3909 1528 3634 
Q 1528 3475 1620 3314 
Q 1713 3153 1997 2859 
z
" transform="scale(0.015625)"/>
       <path id="DejaVuSans-4b" d="M 628 4666 
L 1259 4666 
L 1259 2694 
L 3353 4666 
L 4166 4666 
L 1850 2491 
L 4331 0 
L 3500 0 
L 1259 2247 
L 1259 0 
L 628 0 
L 628 4666 
z
" transform="scale(0.015625)"/>
       <path id="DejaVuSans-6a" d="M 603 3500 
L 1178 3500 
L 1178 -63 
Q 1178 -731 923 -1031 
Q 669 -1331 103 -1331 
L -116 -1331 
L -116 -844 
L 38 -844 
Q 366 -844 484 -692 
Q 603 -541 603 -63 
L 603 3500 
z
M 603 4863 
L 1178 4863 
L 1178 4134 
L 603 4134 
L 603 4863 
z
" transform="scale(0.015625)"/>
       <path id="DejaVuSans-e6" d="M 5369 2063 
Q 5366 2534 5108 2815 
Q 4850 3097 4422 3097 
Q 3944 3097 3655 2825 
Q 3366 2553 3322 2059 
L 5369 2063 
z
M 3109 3009 
Q 3341 3291 3672 3437 
Q 4003 3584 4416 3584 
Q 5122 3584 5534 3129 
Q 5947 2675 5947 1894 
L 5947 1613 
L 3303 1613 
Q 3341 1016 3659 703 
Q 3978 391 4550 391 
Q 4875 391 5187 473 
Q 5500 556 5813 722 
L 5813 178 
Q 5500 47 5175 -22 
Q 4850 -91 4519 -91 
Q 3997 -91 3609 98 
Q 3222 288 2981 659 
Q 2753 284 2415 96 
Q 2078 -91 1631 -91 
Q 1041 -91 712 201 
Q 384 494 384 1019 
Q 384 1609 779 1909 
Q 1175 2209 1959 2209 
L 2766 2209 
L 2766 2266 
Q 2766 2663 2505 2880 
Q 2244 3097 1772 3097 
Q 1472 3097 1187 3025 
Q 903 2953 641 2809 
L 641 3341 
Q 956 3463 1253 3523 
Q 1550 3584 1831 3584 
Q 2275 3584 2608 3434 
Q 2941 3284 3109 3009 
z
M 2194 1759 
Q 1497 1759 1228 1600 
Q 959 1441 959 1056 
Q 959 750 1161 570 
Q 1363 391 1709 391 
Q 2188 391 2477 730 
Q 2766 1069 2766 1631 
L 2766 1759 
L 2194 1759 
z
" transform="scale(0.015625)"/>
       <path id="DejaVuSans-39" d="M 703 97 
L 703 672 
Q 941 559 1184 500 
Q 1428 441 1663 441 
Q 2288 441 2617 861 
Q 2947 1281 2994 2138 
Q 2813 1869 2534 1725 
Q 2256 1581 1919 1581 
Q 1219 1581 811 2004 
Q 403 2428 403 3163 
Q 403 3881 828 4315 
Q 1253 4750 1959 4750 
Q 2769 4750 3195 4129 
Q 3622 3509 3622 2328 
Q 3622 1225 3098 567 
Q 2575 -91 1691 -91 
Q 1453 -91 1209 -44 
Q 966 3 703 97 
z
M 1959 2075 
Q 2384 2075 2632 2365 
Q 2881 2656 2881 3163 
Q 2881 3666 2632 3958 
Q 2384 4250 1959 4250 
Q 1534 4250 1286 3958 
Q 1038 3666 1038 3163 
Q 1038 2656 1286 2365 
Q 1534 2075 1959 2075 
z
" transform="scale(0.015625)"/>
       <path id="DejaVuSans-34" d="M 2419 4116 
L 825 1625 
L 2419 1625 
L 2419 4116 
z
M 2253 4666 
L 3047 4666 
L 3047 1625 
L 3713 1625 
L 3713 1100 
L 3047 1100 
L 3047 0 
L 2419 0 
L 2419 1100 
L 313 1100 
L 313 1709 
L 2253 4666 
z
" transform="scale(0.015625)"/>
      </defs>
      <use xlink:href="#DejaVuSans-42"/>
      <use xlink:href="#DejaVuSans-72" transform="translate(68.603516 0)"/>
      <use xlink:href="#DejaVuSans-fc" transform="translate(109.716797 0)"/>
      <use xlink:href="#DejaVuSans-65" transform="translate(173.095703 0)"/>
      <use xlink:href="#DejaVuSans-6c" transform="translate(234.619141 0)"/>
      <use xlink:href="#DejaVuSans-20" transform="translate(262.402344 0)"/>
      <use xlink:href="#DejaVuSans-26" transform="translate(294.189453 0)"/>
      <use xlink:href="#DejaVuSans-20" transform="translate(372.167969 0)"/>
      <use xlink:href="#DejaVuSans-4b" transform="translate(403.955078 0)"/>
      <use xlink:href="#DejaVuSans-6a" transform="translate(469.53125 0)"/>
      <use xlink:href="#DejaVuSans-e6" transform="translate(497.314453 0)"/>
      <use xlink:href="#DejaVuSans-72" transform="translate(595.507812 0)"/>
      <use xlink:href="#DejaVuSans-20" transform="translate(636.621094 0)"/>
      <use xlink:href="#DejaVuSans-31" transform="translate(668.408203 0)"/>
      <use xlink:href="#DejaVuSans-39" transform="translate(732.03125 0)"/>
      <use xlink:href="#DejaVuSans-37" transform="translate(795.654297 0)"/>
      <use xlink:href="#DejaVuSans-34" transform="translate(859.277344 0)"/>
     </g>
    </g>
    <g id="line2d_89">
     <path d="M 721.724844 86.4975 
L 730.724844 86.4975 
L 739.724844 86.4975 
" style="fill: none; stroke: #c0394c; stroke-width: 2.2; stroke-linecap: square"/>
    </g>
    <g id="text_27">
     <!-- Toole in-room -->
     <g transform="translate(746.924844 89.6475) scale(0.09 -0.09)">
      <defs>
       <path id="DejaVuSans-54" d="M -19 4666 
L 3928 4666 
L 3928 4134 
L 2272 4134 
L 2272 0 
L 1638 0 
L 1638 4134 
L -19 4134 
L -19 4666 
z
" transform="scale(0.015625)"/>
      </defs>
      <use xlink:href="#DejaVuSans-54"/>
      <use xlink:href="#DejaVuSans-6f" transform="translate(44.083984 0)"/>
      <use xlink:href="#DejaVuSans-6f" transform="translate(105.265625 0)"/>
      <use xlink:href="#DejaVuSans-6c" transform="translate(166.447266 0)"/>
      <use xlink:href="#DejaVuSans-65" transform="translate(194.230469 0)"/>
      <use xlink:href="#DejaVuSans-20" transform="translate(255.753906 0)"/>
      <use xlink:href="#DejaVuSans-69" transform="translate(287.541016 0)"/>
      <use xlink:href="#DejaVuSans-6e" transform="translate(315.324219 0)"/>
      <use xlink:href="#DejaVuSans-2d" transform="translate(378.703125 0)"/>
      <use xlink:href="#DejaVuSans-72" transform="translate(414.787109 0)"/>
      <use xlink:href="#DejaVuSans-6f" transform="translate(453.650391 0)"/>
      <use xlink:href="#DejaVuSans-6f" transform="translate(514.832031 0)"/>
      <use xlink:href="#DejaVuSans-6d" transform="translate(576.013672 0)"/>
     </g>
    </g>
    <g id="line2d_90">
     <path d="M 721.724844 99.707812 
L 730.724844 99.707812 
L 739.724844 99.707812 
" style="fill: none; stroke: #7a52a6; stroke-width: 2.2; stroke-linecap: square"/>
    </g>
    <g id="text_28">
     <!-- Welti subwoofer -->
     <g transform="translate(746.924844 102.857812) scale(0.09 -0.09)">
      <defs>
       <path id="DejaVuSans-66" d="M 2375 4863 
L 2375 4384 
L 1825 4384 
Q 1516 4384 1395 4259 
Q 1275 4134 1275 3809 
L 1275 3500 
L 2222 3500 
L 2222 3053 
L 1275 3053 
L 1275 0 
L 697 0 
L 697 3053 
L 147 3053 
L 147 3500 
L 697 3500 
L 697 3744 
Q 697 4328 969 4595 
Q 1241 4863 1831 4863 
L 2375 4863 
z
" transform="scale(0.015625)"/>
      </defs>
      <use xlink:href="#DejaVuSans-57"/>
      <use xlink:href="#DejaVuSans-65" transform="translate(93.001953 0)"/>
      <use xlink:href="#DejaVuSans-6c" transform="translate(154.525391 0)"/>
      <use xlink:href="#DejaVuSans-74" transform="translate(182.308594 0)"/>
      <use xlink:href="#DejaVuSans-69" transform="translate(221.517578 0)"/>
      <use xlink:href="#DejaVuSans-20" transform="translate(249.300781 0)"/>
      <use xlink:href="#DejaVuSans-73" transform="translate(281.087891 0)"/>
      <use xlink:href="#DejaVuSans-75" transform="translate(333.1875 0)"/>
      <use xlink:href="#DejaVuSans-62" transform="translate(396.566406 0)"/>
      <use xlink:href="#DejaVuSans-77" transform="translate(460.042969 0)"/>
      <use xlink:href="#DejaVuSans-6f" transform="translate(541.830078 0)"/>
      <use xlink:href="#DejaVuSans-6f" transform="translate(603.011719 0)"/>
      <use xlink:href="#DejaVuSans-66" transform="translate(664.193359 0)"/>
      <use xlink:href="#DejaVuSans-65" transform="translate(699.398438 0)"/>
      <use xlink:href="#DejaVuSans-72" transform="translate(760.921875 0)"/>
     </g>
    </g>
    <g id="line2d_91">
     <path d="M 721.724844 112.918125 
L 730.724844 112.918125 
L 739.724844 112.918125 
" style="fill: none; stroke: #b8860b; stroke-width: 2.2; stroke-linecap: square"/>
    </g>
    <g id="text_29">
     <!-- Flat reference -->
     <g transform="translate(746.924844 116.068125) scale(0.09 -0.09)">
      <use xlink:href="#DejaVuSans-46"/>
      <use xlink:href="#DejaVuSans-6c" transform="translate(57.519531 0)"/>
      <use xlink:href="#DejaVuSans-61" transform="translate(85.302734 0)"/>
      <use xlink:href="#DejaVuSans-74" transform="translate(146.582031 0)"/>
      <use xlink:href="#DejaVuSans-20" transform="translate(185.791016 0)"/>
      <use xlink:href="#DejaVuSans-72" transform="translate(217.578125 0)"/>
      <use xlink:href="#DejaVuSans-65" transform="translate(256.441406 0)"/>
      <use xlink:href="#DejaVuSans-66" transform="translate(317.964844 0)"/>
      <use xlink:href="#DejaVuSans-65" transform="translate(353.169922 0)"/>
      <use xlink:href="#DejaVuSans-72" transform="translate(414.693359 0)"/>
      <use xlink:href="#DejaVuSans-65" transform="translate(453.556641 0)"/>
      <use xlink:href="#DejaVuSans-6e" transform="translate(515.080078 0)"/>
      <use xlink:href="#DejaVuSans-63" transform="translate(578.458984 0)"/>
      <use xlink:href="#DejaVuSans-65" transform="translate(633.439453 0)"/>
     </g>
    </g>
   </g>
  </g>
 </g>
 <defs>
  <clipPath id="pb8d4e07d3d">
   <rect x="49.732656" y="35.077969" width="791.155" height="316.84"/>
  </clipPath>
 </defs>
</svg>
